<svg xmlns="http://www.w3.org/2000/svg" width="264" height="104" overflow="hidden"><defs><clipPath id="a"><path d="M508 307h265v106H508z"/></clipPath></defs><g clip-path="url(#a)" transform="translate(-508 -308)"><path style="fill:#adb9ca" d="M508 308h264v104H508z"/><path d="M10.64-1.207q0 .34-.035.574-.023.223-.082.363-.058.141-.152.211Q10.29 0 10.184 0H2.566Q2.18 0 1.91-.223q-.258-.234-.258-.75V-14.19q0-.516.258-.739.27-.234.656-.234h7.57q.106 0 .188.059.082.058.14.21.06.141.083.375.035.223.035.575 0 .328-.035.562-.024.223-.082.363-.059.141-.14.211-.083.059-.188.059H4.723v3.703h4.582q.105 0 .187.07.094.059.153.2.058.129.082.363.035.223.035.55 0 .34-.035.563-.024.223-.082.363-.06.13-.153.188-.082.059-.187.059H4.723v4.277h5.46q.106 0 .188.07.094.059.152.2.059.14.082.374.036.223.036.563zm12.528.809q0 .117-.07.21-.07.083-.235.141-.164.059-.457.082-.281.035-.703.035-.433 0-.726-.035-.282-.023-.446-.082-.164-.058-.234-.14-.07-.094-.07-.211v-5.965q0-.762-.118-1.196-.105-.433-.316-.738-.211-.316-.55-.48-.329-.176-.774-.176-.563 0-1.137.41-.574.41-1.195 1.195v6.95q0 .117-.07.21-.07.083-.247.141-.164.059-.445.082-.281.035-.715.035-.433 0-.715-.035-.28-.023-.457-.082-.164-.058-.234-.14-.07-.094-.07-.211v-10.454q0-.117.058-.199.059-.094.211-.152.152-.059.387-.082.246-.035.61-.035.374 0 .62.035.246.023.375.082.14.058.2.152.058.082.058.2v1.206q.867-.937 1.758-1.406.902-.469 1.875-.469 1.066 0 1.793.352.738.352 1.183.961.458.598.657 1.406.199.809.199 1.946zm8.859-1.032q0 .516-.07.797-.059.27-.164.387-.105.105-.316.2-.2.081-.48.14-.27.07-.599.105-.316.035-.644.035-.879 0-1.524-.222-.644-.223-1.066-.68-.422-.469-.621-1.172-.2-.703-.2-1.664v-5.355H25.09q-.223 0-.34-.27-.117-.281-.117-.926 0-.34.023-.574.035-.234.094-.363.059-.14.14-.2.094-.058.212-.058h1.242v-2.332q0-.117.058-.211.07-.094.235-.152.175-.07.457-.094.293-.035.715-.035.433 0 .714.035.293.023.457.094.165.058.235.152.07.094.07.211v2.332h2.274q.117 0 .199.059.094.058.152.199.059.129.082.363.035.234.035.574 0 .645-.117.926-.117.27-.34.27h-2.285v4.91q0 .855.27 1.289.27.422.96.422.235 0 .422-.035.188-.047.329-.094l.246-.094q.105-.047.187-.047.07 0 .13.047.07.035.105.164.035.117.058.328.035.211.035.54zm8.848-8.449q0 .422-.023.691-.024.27-.07.422-.048.153-.13.211-.07.059-.187.059-.094 0-.211-.035-.117-.047-.27-.094-.14-.047-.316-.082-.176-.047-.387-.047-.246 0-.492.106-.246.093-.516.304-.257.211-.55.563-.282.351-.61.867v6.516q0 .117-.07.21-.07.083-.246.141-.164.059-.445.082-.282.035-.715.035-.434 0-.715-.035-.281-.023-.457-.082-.164-.058-.235-.14-.07-.094-.07-.211v-10.454q0-.117.059-.199.058-.094.21-.152.153-.059.387-.082.247-.035.61-.035.375 0 .62.035.247.023.376.082.14.058.2.152.058.082.058.2v1.3q.41-.586.773-.96.363-.387.692-.61.328-.223.656-.305.328-.094.656-.094.152 0 .328.024.176.012.363.058.188.036.329.094.14.047.199.106.07.058.094.129.035.07.058.199.024.117.035.363.012.246.012.668zM48.855 0 47.59 3.703q-.106.293-.574.422-.47.129-1.371.129-.47 0-.75-.047-.282-.035-.422-.129-.141-.094-.153-.234-.011-.14.07-.34L45.786 0q-.152-.07-.281-.21-.117-.153-.176-.317l-3.598-9.61q-.152-.41-.152-.62 0-.223.14-.34.141-.13.47-.176.34-.047.89-.047.504 0 .797.023.293.012.457.082.164.07.246.223.082.14.164.41l2.461 6.996h.035l2.25-7.137q.07-.304.176-.398.117-.106.375-.152.258-.047.902-.047.504 0 .832.047.34.046.493.175.164.13.164.352 0 .21-.094.504zm21.293-10.559q0 1.278-.398 2.262-.398.985-1.16 1.664-.762.668-1.875 1.02-1.102.351-2.602.351h-1.265v4.84q0 .117-.082.211-.07.094-.246.152-.176.059-.47.094-.292.035-.75.035-.445 0-.75-.035-.292-.035-.468-.094-.176-.058-.246-.152t-.07-.21v-13.642q0-.55.28-.82.294-.281.763-.281h3.574q.539 0 1.02.047.492.035 1.171.176.68.128 1.371.492.703.363 1.196.926.492.55.75 1.3.257.739.257 1.664zm-3.222.223q0-.797-.281-1.312-.282-.516-.692-.762t-.867-.305q-.445-.07-.926-.07h-1.312v5.144h1.382q.739 0 1.23-.199.505-.2.821-.55.317-.364.48-.856.165-.504.165-1.09zM82.547-5.73q0 1.335-.352 2.437-.351 1.102-1.066 1.898-.715.797-1.793 1.23-1.078.435-2.52.435-1.394 0-2.425-.387-1.032-.387-1.711-1.125Q72-1.98 71.672-3.06q-.328-1.078-.328-2.46 0-1.336.351-2.438.364-1.113 1.078-1.898.715-.797 1.782-1.23 1.078-.435 2.52-.435 1.405 0 2.437.387 1.031.375 1.699 1.113.68.739 1.008 1.817.328 1.078.328 2.473zm-3.035.117q0-.774-.13-1.418-.116-.657-.41-1.137-.292-.48-.784-.75-.481-.27-1.22-.27-.656 0-1.148.247-.492.234-.808.703-.317.457-.48 1.113-.153.645-.153 1.477 0 .773.129 1.43.129.644.41 1.124.293.48.785.75.492.258 1.219.258.668 0 1.16-.234.492-.246.809-.703.316-.457.468-1.102.153-.656.153-1.488zm8.32 5.215q0 .117-.07.21-.07.083-.246.141-.164.059-.446.082-.28.035-.715.035-.433 0-.714-.035-.282-.023-.457-.082-.164-.058-.235-.14-.07-.094-.07-.211v-10.43q0-.117.07-.2.07-.093.235-.152.175-.07.457-.105.28-.035.714-.035.434 0 .715.035.282.035.446.105.175.059.246.153.07.082.07.199zm.223-13.993q0 .891-.364 1.23-.363.34-1.347.34-.996 0-1.348-.327-.34-.329-.34-1.184 0-.89.352-1.23.363-.352 1.36-.352.984 0 1.335.34.352.328.352 1.183zM100.758-.398q0 .117-.07.21-.07.083-.235.141-.164.059-.457.082-.281.035-.703.035-.434 0-.727-.035-.28-.023-.445-.082-.164-.058-.234-.14-.07-.094-.07-.211v-5.965q0-.762-.118-1.196-.105-.433-.316-.738-.211-.316-.551-.48-.328-.176-.773-.176-.563 0-1.137.41-.574.41-1.195 1.195v6.95q0 .117-.07.21-.071.083-.247.141-.164.059-.445.082-.281.035-.715.035-.434 0-.715-.035-.281-.023-.457-.082-.164-.058-.234-.14-.07-.094-.07-.211v-10.454q0-.117.058-.199.059-.094.211-.152.152-.059.387-.082.246-.035.61-.035.374 0 .62.035.246.023.375.082.14.058.2.152.058.082.058.2v1.206q.867-.937 1.758-1.406.902-.469 1.875-.469 1.066 0 1.793.352.738.352 1.183.961.457.598.657 1.406.199.809.199 1.946zm8.859-1.032q0 .516-.07.797-.059.27-.164.387-.106.105-.317.2-.199.081-.48.14-.27.07-.598.105-.316.035-.644.035-.88 0-1.524-.222-.644-.223-1.066-.68-.422-.469-.621-1.172-.2-.703-.2-1.664v-5.355h-1.253q-.223 0-.34-.27-.117-.281-.117-.926 0-.34.023-.574.035-.234.094-.363.058-.14.14-.2.094-.058.211-.058h1.243v-2.332q0-.117.058-.211.07-.094.234-.152.176-.07.458-.094.292-.035.714-.035.434 0 .715.035.293.023.457.094.164.058.235.152.07.094.07.211v2.332h2.273q.118 0 .2.059.093.058.152.199.059.129.082.363.035.234.035.574 0 .645-.117.926-.117.27-.34.27h-2.285v4.91q0 .855.27 1.289.27.422.96.422.235 0 .422-.035.188-.047.328-.094l.247-.094q.105-.047.187-.047.07 0 .129.047.07.035.105.164.036.117.059.328.035.211.035.54z" style="font-weight:700;font-size:24px;font-family:Calibri,Calibri_MSFontService,sans-serif;fill:#fff" transform="translate(584.943 339)" aria-label="Entry Point"/><path d="M515.5 351.5h118v42.503c-59 0-59 16.195-118 6.993z" stroke="#2f528f" stroke-width="1.333" stroke-miterlimit="8" fill="#b4c7e7" fill-rule="evenodd"/><path d="M8.023-7.04q0 .853-.265 1.509-.266.656-.774 1.11-.507.444-1.25.679Q5-3.508 4-3.508h-.844V-.28q0 .078-.054.14-.047.063-.164.102Q2.82 0 2.624.023q-.195.024-.5.024-.297 0-.5-.024Q1.43 0 1.312-.039q-.117-.04-.164-.102-.046-.062-.046-.14v-9.094q0-.367.187-.547.195-.187.508-.187H4.18q.36 0 .68.03.327.024.78.118.454.086.915.328.468.242.797.617.328.368.5.868.171.492.171 1.109zm-2.148.15q0-.532-.188-.876-.187-.343-.46-.507-.274-.165-.579-.204-.296-.046-.617-.046h-.875v3.43h.922q.492 0 .82-.134.336-.132.547-.367.211-.242.32-.57.11-.336.11-.727zm9.25 6.648q0 .11-.078.172-.078.062-.25.086-.164.03-.492.03-.352 0-.516-.03-.156-.024-.226-.086-.063-.063-.063-.172v-.555q-.43.461-.984.719-.547.258-1.22.258-.554 0-1.023-.149-.46-.14-.804-.422-.336-.289-.524-.71-.187-.422-.187-.985 0-.61.234-1.055.242-.453.711-.742.477-.297 1.18-.437t1.633-.14h.68v-.423q0-.328-.071-.57-.062-.25-.219-.414-.148-.164-.406-.242-.25-.079-.625-.079-.492 0-.883.11-.383.11-.68.242-.296.133-.5.242-.195.11-.32.11-.086 0-.156-.055-.063-.055-.11-.156-.039-.102-.062-.25-.023-.149-.023-.328 0-.243.039-.383t.148-.25q.11-.117.383-.25.273-.14.64-.258.368-.117.797-.188.438-.078.899-.078.82 0 1.398.164.586.157.961.493.375.328.547.851.172.524.172 1.242zm-1.93-2.985h-.75q-.476 0-.812.07-.336.071-.547.212-.211.14-.313.343-.093.196-.093.454 0 .437.273.687.281.25.774.25.414 0 .757-.21.352-.212.711-.618zm8.368-3.359q0 .281-.016.461t-.047.281q-.031.102-.086.14-.047.04-.125.04-.062 0-.14-.023-.079-.032-.18-.063-.094-.031-.211-.055-.117-.03-.258-.03-.164 0-.328.07-.164.062-.344.203-.172.14-.367.375-.188.234-.406.578v4.343q0 .079-.047.141-.047.055-.164.094-.11.039-.297.054-.188.024-.477.024t-.476-.024q-.188-.015-.305-.054-.11-.04-.156-.094-.047-.062-.047-.14v-6.97q0-.077.039-.132.04-.063.14-.102.102-.039.258-.054.165-.024.407-.024.25 0 .414.024.164.015.25.054.094.04.133.102.039.055.039.133v.867q.273-.39.515-.64.242-.259.461-.407.219-.148.438-.203.218-.063.437-.063.102 0 .219.016.117.008.242.039.125.023.219.063.094.03.133.07.047.039.062.086.024.047.04.133.015.078.023.242.007.164.007.445zM28.36-.242q0 .11-.079.172-.078.062-.25.086-.164.03-.492.03-.352 0-.516-.03-.156-.024-.226-.086-.063-.063-.063-.172v-.555q-.43.461-.984.719-.547.258-1.219.258-.554 0-1.023-.149-.461-.14-.805-.422-.336-.289-.523-.71-.188-.422-.188-.985 0-.61.235-1.055.242-.453.71-.742.477-.297 1.18-.437t1.633-.14h.68v-.423q0-.328-.07-.57-.063-.25-.22-.414-.148-.164-.406-.242-.25-.079-.625-.079-.492 0-.882.11-.383.11-.68.242-.297.133-.5.242-.195.11-.32.11-.086 0-.157-.055-.062-.055-.11-.156-.038-.102-.062-.25-.023-.149-.023-.328 0-.243.04-.383.038-.14.147-.25.11-.117.383-.25.274-.14.64-.258.368-.117.798-.188.437-.078.898-.078.82 0 1.399.164.586.157.96.493.376.328.547.851.172.524.172 1.242zm-1.93-2.985h-.75q-.477 0-.813.07-.336.071-.547.212-.21.14-.312.343-.094.196-.094.454 0 .437.273.687.282.25.774.25.414 0 .758-.21.351-.212.71-.618zM41.406-.266q0 .079-.047.141-.046.055-.156.094t-.297.054q-.187.024-.476.024-.297 0-.485-.024-.187-.015-.304-.054-.11-.04-.157-.094-.039-.063-.039-.14v-4.133q0-.352-.07-.641-.063-.29-.203-.492-.133-.211-.344-.32-.203-.118-.492-.118-.352 0-.711.274-.36.273-.781.797v4.632q0 .079-.047.141-.047.055-.164.094-.11.039-.297.054-.188.024-.469.024-.289 0-.476-.024-.188-.015-.305-.054-.11-.04-.156-.094-.047-.063-.047-.14v-4.133q0-.352-.07-.641-.063-.29-.196-.492-.133-.211-.344-.32-.21-.118-.492-.118-.36 0-.718.274-.36.273-.774.797v4.632q0 .079-.047.141-.047.055-.164.094-.11.039-.297.054-.187.024-.476.024-.29 0-.477-.024-.187-.015-.305-.054-.109-.04-.156-.094-.047-.063-.047-.14v-6.97q0-.077.04-.132.038-.063.14-.102.102-.039.258-.054.164-.024.406-.024.25 0 .414.024.164.015.25.054.094.04.133.102.039.054.039.133v.804q.578-.625 1.148-.937.579-.313 1.204-.313.43 0 .773.094.344.086.61.258.273.164.468.398.195.235.328.524.313-.336.61-.578.304-.243.593-.391.297-.156.586-.227.297-.078.602-.078.695 0 1.172.235.476.234.765.64.297.399.422.938.125.539.125 1.14zm8.367-3.687q0 .36-.164.531-.156.172-.437.172H44.93q0 .445.101.813.11.359.336.617.235.25.594.383.367.132.875.132.516 0 .906-.07.39-.078.672-.164.29-.094.477-.164.187-.078.304-.078.07 0 .118.031.046.023.078.094.03.07.039.203.015.125.015.32 0 .172-.007.297-.008.117-.024.203-.016.086-.047.149-.031.054-.086.109-.047.055-.273.148-.227.094-.578.188-.352.086-.805.148-.453.07-.969.07-.93 0-1.633-.234-.695-.234-1.164-.71-.468-.477-.703-1.204-.226-.726-.226-1.703 0-.93.242-1.672.242-.75.703-1.265.46-.524 1.117-.797.664-.274 1.492-.274.875 0 1.493.258.625.258 1.023.719.398.453.586 1.078.187.625.187 1.36zm-1.906-.563q.024-.828-.336-1.296-.351-.477-1.093-.477-.376 0-.657.14-.273.141-.46.383-.18.235-.282.563-.094.32-.11.687zm7.539 3.563q0 .344-.047.531-.039.18-.109.258-.07.07-.21.133-.134.054-.321.093-.18.047-.399.07-.21.024-.43.024-.585 0-1.015-.148-.43-.149-.71-.453-.282-.313-.415-.782-.133-.468-.133-1.109v-3.57h-.836q-.148 0-.226-.18-.078-.187-.078-.617 0-.227.015-.383.024-.156.063-.242.039-.094.093-.133.063-.039.141-.039h.828v-1.555q0-.078.04-.14.046-.063.155-.102.118-.047.305-.062.195-.024.477-.024.289 0 .476.024.196.015.305.062.11.04.156.102.047.062.047.14V-7.5h1.516q.078 0 .133.04.062.038.101.132.04.086.055.242.023.156.023.383 0 .43-.078.617-.078.18-.226.18h-1.524v3.273q0 .57.18.86.18.28.64.28.157 0 .282-.023.125-.03.218-.062l.164-.063q.07-.03.126-.03.046 0 .085.03.047.024.07.11.024.078.04.219.023.14.023.359zm7.664-3q0 .36-.164.531-.156.172-.437.172h-4.242q0 .445.101.813.11.359.336.617.234.25.594.383.367.132.875.132.515 0 .906-.07.39-.078.672-.164.289-.094.477-.164.187-.078.304-.078.07 0 .117.031.047.023.079.094.03.07.039.203.015.125.015.32 0 .172-.008.297-.007.117-.023.203-.016.086-.047.149-.031.054-.086.109-.047.055-.273.148-.227.094-.578.188-.352.086-.805.148-.453.07-.969.07-.93 0-1.633-.234-.695-.234-1.164-.71-.468-.477-.703-1.204-.226-.726-.226-1.703 0-.93.242-1.672.242-.75.703-1.265.46-.524 1.117-.797.664-.274 1.492-.274.875 0 1.492.258.625.258 1.024.719.398.453.586 1.078.187.625.187 1.36zm-1.906-.563q.023-.828-.336-1.296-.351-.477-1.094-.477-.375 0-.656.14-.273.141-.46.383-.18.235-.282.563-.094.32-.11.687zm8-2.07q0 .281-.016.461-.015.18-.046.281-.032.102-.086.14-.047.04-.125.04-.063 0-.141-.023-.078-.032-.18-.063-.093-.031-.21-.055-.118-.03-.258-.03-.165 0-.329.07-.164.062-.343.203-.172.14-.368.375-.187.234-.406.578v4.343q0 .079-.047.141-.046.055-.164.094-.11.039-.297.054-.187.024-.476.024-.29 0-.477-.024-.187-.015-.304-.054-.11-.04-.157-.094-.046-.063-.046-.14v-6.97q0-.077.039-.132.039-.063.14-.102.102-.039.258-.054.164-.024.406-.024.25 0 .414.024.164.015.25.054.094.04.133.102.04.054.04.133v.867q.273-.39.515-.64.242-.259.46-.407.22-.149.438-.203.219-.063.438-.063.101 0 .218.016.118.008.243.039.125.023.218.063.094.03.133.07.047.039.063.086.023.047.039.133.015.078.023.242.008.164.008.445zm5.922 4.352q0 .593-.227 1.046-.218.454-.625.758-.406.305-.96.453-.555.157-1.204.157-.39 0-.75-.063-.351-.055-.632-.14-.282-.094-.47-.188-.187-.094-.273-.172-.086-.086-.132-.258-.047-.18-.047-.523 0-.227.015-.36.016-.14.047-.218.031-.086.078-.11.047-.03.117-.03.086 0 .25.1.172.095.422.212.25.117.578.218.336.102.758.102.266 0 .469-.055.21-.054.36-.156.156-.101.234-.258.078-.156.078-.36 0-.233-.149-.398-.14-.171-.382-.296-.235-.125-.54-.235-.296-.11-.617-.242-.312-.133-.617-.305-.297-.172-.539-.422-.234-.25-.383-.601-.14-.352-.14-.844 0-.5.195-.914.195-.422.563-.719.367-.297.89-.46.531-.165 1.188-.165.328 0 .632.047.313.047.563.117.25.07.422.157.172.078.242.14.078.055.11.117.03.055.046.141.016.078.024.203.015.117.015.297 0 .211-.015.344-.008.133-.04.21-.023.079-.07.11-.047.024-.11.024-.07 0-.218-.079-.148-.085-.375-.18-.219-.093-.515-.171-.29-.086-.665-.086-.265 0-.46.055-.196.054-.32.156-.126.101-.188.242-.063.133-.063.29 0 .241.149.405.148.164.39.29.243.124.547.234.313.11.625.242.32.125.625.297.313.172.555.422.242.25.39.601.149.344.149.82z" style="font-weight:700;font-size:16px;font-family:Calibri,Calibri_MSFontService,sans-serif" transform="translate(536.536 378)" aria-label="Parameters"/><path style="fill:#f8cbad" d="M640.5 351.5h122v53h-122z"/><path d="M655.75 351.5v53m91.5-53v53" stroke="#2f528f" stroke-width="1.333" stroke-miterlimit="8" fill="none"/><path style="fill:none;stroke:#2f528f;stroke-width:1.33333;stroke-miterlimit:8" d="M640.5 351.5h122v53h-122z"/><path d="M7.094-3.031q0 .797-.297 1.398-.297.602-.805 1.008-.508.398-1.187.602-.68.203-1.453.203-.524 0-.977-.086-.445-.086-.79-.203-.343-.125-.577-.258Q.78-.5.68-.602.578-.703.53-.89q-.039-.195-.039-.554 0-.242.016-.407.015-.164.047-.265.039-.102.093-.14.063-.048.141-.048.11 0 .305.133.203.125.515.281.313.157.743.29.437.124 1.007.124.375 0 .672-.085.297-.094.5-.258.211-.164.32-.407.11-.242.11-.539 0-.343-.188-.586-.187-.25-.492-.437-.297-.195-.68-.36-.382-.171-.788-.359-.407-.187-.79-.422-.382-.242-.687-.57-.297-.336-.484-.79-.188-.452-.188-1.085 0-.727.266-1.273.273-.555.726-.915.461-.367 1.078-.546.625-.18 1.32-.18.36 0 .72.055.359.054.671.148.313.094.555.211.242.117.32.195.078.078.102.133.031.055.047.149.023.085.031.226.008.133.008.336 0 .227-.016.383-.008.156-.039.258-.023.101-.078.148Q6.328-8 6.242-8q-.086 0-.273-.11-.188-.109-.461-.234-.274-.133-.633-.234-.36-.11-.79-.11-.335 0-.585.086-.25.079-.422.227-.164.14-.25.344-.078.203-.078.43 0 .335.18.585.187.243.492.438.312.187.703.36.39.163.797.35.406.188.797.43.39.235.695.57.305.329.492.782.188.445.188 1.055zm6.726 1.656q0 .203-.015.344-.008.133-.032.226-.015.094-.046.157-.024.054-.118.148-.093.086-.32.219-.226.125-.516.226-.289.102-.632.164-.336.063-.696.063-.804 0-1.43-.25-.617-.25-1.038-.735-.422-.492-.641-1.195-.211-.703-.211-1.61 0-1.046.258-1.804.265-.766.734-1.266t1.11-.742q.64-.242 1.406-.242.312 0 .61.055.304.054.562.148.265.094.468.211.211.117.297.203.086.086.118.149.039.054.054.148.024.094.031.235.016.132.016.328 0 .453-.078.64-.078.18-.203.18-.133 0-.281-.11-.149-.109-.352-.242-.203-.132-.484-.242-.282-.11-.672-.11-.766 0-1.172.595-.406.586-.406 1.726 0 .563.101.992.102.43.297.72.203.288.5.437.305.14.703.14.406 0 .695-.117.297-.125.516-.273.219-.149.367-.266.149-.125.25-.125.07 0 .118.04.046.038.07.148.031.101.047.265.015.164.015.422zm5.899-5.211q0 .281-.016.461t-.047.281q-.031.102-.086.14-.047.04-.125.04-.062 0-.14-.023-.078-.032-.18-.063-.094-.031-.21-.055-.118-.03-.259-.03-.164 0-.328.07-.164.062-.344.203-.172.14-.367.375-.187.234-.406.578v4.343q0 .079-.047.141-.047.055-.164.094-.11.039-.297.054-.187.024-.476.024-.29 0-.477-.024-.188-.015-.305-.054-.11-.04-.156-.094-.047-.063-.047-.14v-6.97q0-.077.04-.132.038-.063.14-.102.101-.039.258-.054.164-.024.406-.024.25 0 .414.024.164.015.25.054.094.04.133.102.039.054.039.133v.867q.273-.39.515-.64.243-.259.461-.407.22-.149.438-.203.219-.063.437-.063.102 0 .22.016.116.008.241.039.125.023.22.063.093.03.132.07.047.039.062.086.024.047.04.133.015.078.023.242.008.164.008.445zm3.179 6.32q0 .079-.046.141-.047.055-.164.094-.11.039-.297.054-.188.024-.477.024t-.476-.024q-.188-.015-.305-.054-.11-.04-.156-.094-.047-.063-.047-.14V-7.22q0-.078.047-.133.046-.062.156-.101.117-.047.305-.07.187-.024.476-.024.29 0 .477.024.187.023.297.07.117.039.164.101.046.055.046.133zm.149-9.328q0 .594-.242.82-.242.227-.899.227-.664 0-.898-.219-.227-.218-.227-.789 0-.593.235-.82.242-.234.906-.234.656 0 .89.226.235.219.235.79zm8.828 5.742q0 .93-.203 1.68-.195.742-.578 1.266-.383.523-.953.804-.57.282-1.305.282-.305 0-.563-.063-.25-.055-.492-.172-.234-.125-.468-.304-.235-.18-.485-.422V2.5q0 .078-.047.14-.047.063-.164.102-.11.047-.297.07-.187.024-.476.024-.29 0-.477-.024-.187-.023-.305-.07-.109-.039-.156-.101-.047-.063-.047-.141v-9.734q0-.079.04-.133.038-.063.132-.102.102-.039.258-.054.164-.024.406-.024.235 0 .39.024.165.015.259.054.101.04.14.102.04.054.04.133v.82q.304-.313.593-.547.297-.242.602-.398.304-.164.625-.243.328-.078.695-.078.766 0 1.305.305.539.297.875.82.343.524.5 1.22.156.694.156 1.483zm-2.047.141q0-.445-.07-.852-.063-.414-.227-.734-.156-.32-.422-.508Q28.852-6 28.461-6q-.195 0-.39.063-.188.054-.391.187-.196.133-.407.344-.21.21-.445.523v2.297q.414.523.79.813.374.28.78.28.383 0 .649-.194.273-.196.445-.508.172-.32.25-.72.086-.397.086-.796zm7.68 2.758q0 .344-.047.531-.04.18-.11.258-.07.07-.21.133-.133.054-.32.093-.18.047-.4.07-.21.024-.429.024-.586 0-1.015-.148-.43-.149-.711-.453-.282-.313-.414-.782-.133-.468-.133-1.109v-3.57h-.836q-.149 0-.227-.18-.078-.187-.078-.617 0-.227.016-.383.023-.156.062-.242.04-.094.094-.133.063-.039.14-.039h.829v-1.555q0-.078.039-.14.047-.063.156-.102.117-.047.305-.062.195-.024.476-.024.29 0 .477.024.195.015.305.062.109.04.156.102.047.062.047.14V-7.5h1.515q.078 0 .133.04.063.038.102.132.039.086.054.242.024.156.024.383 0 .43-.078.617-.078.18-.227.18H35.68v3.273q0 .57.18.86.18.28.64.28.156 0 .281-.023.125-.03.219-.062l.164-.063q.07-.03.125-.03.047 0 .086.03.047.024.07.11.024.078.04.219.023.14.023.359z" style="font-weight:700;font-size:16px;font-family:Calibri,Calibri_MSFontService,sans-serif" transform="translate(682.171 383)" aria-label="Script"/></g></svg>