<svg width="998" height="668" xmlns="http://www.w3.org/2000/svg" xmlns:xlink="http://www.w3.org/1999/xlink" overflow="hidden"><defs><clipPath id="clip0"><rect x="141" y="22" width="998" height="668"/></clipPath><clipPath id="clip1"><rect x="355" y="23" width="570" height="224"/></clipPath><clipPath id="clip2"><rect x="355" y="23" width="570" height="225"/></clipPath><clipPath id="clip3"><rect x="355" y="23" width="570" height="225"/></clipPath></defs><g clip-path="url(#clip0)" transform="translate(-141 -22)"><g clip-path="url(#clip1)"><g clip-path="url(#clip2)"><g clip-path="url(#clip3)"><path d="M1094.15 663.385 1662.77 663.385 1662.77 887.385 1094.15 887.385Z" fill="#ADB9CA" transform="matrix(1.00244 0 0 1 -741.818 -640.385)"/><path d="M22.9169-2.59969C22.9169-2.11149 22.8918-1.69938 22.8415-1.36338 22.8085-1.04318 22.7496-0.782564 22.6649-0.581538 22.5816-0.379077 22.4725-0.22759 22.3375-0.127077 22.2212-0.042359 22.087 0 21.9348 0L5.52677 0C4.97251 0 4.50154-0.160103 4.11385-0.480308 3.74338-0.816308 3.55815-1.35477 3.55815-2.09569L3.55815-30.5631C3.55815-31.304 3.74338-31.8346 4.11385-32.1548 4.50154-32.4908 4.97251-32.6588 5.52677-32.6588L21.8314-32.6588C21.9836-32.6588 22.1186-32.6164 22.2363-32.5317 22.3541-32.4484 22.4546-32.2976 22.5378-32.0794 22.624-31.8769 22.6836-31.6077 22.7166-31.2717 22.7669-30.9515 22.792-30.5387 22.792-30.0332 22.792-29.5623 22.7669-29.1588 22.7166-28.8228 22.6822-28.5026 22.6233-28.242 22.54-28.0409 22.4553-27.8385 22.3548-27.687 22.2385-27.5865 22.1193-27.5017 21.9843-27.4594 21.8335-27.4594L10.1726-27.4594 10.1726-19.4837 20.0415-19.4837C20.1923-19.4837 20.3266-19.4334 20.4443-19.3329 20.5793-19.2482 20.6891-19.1046 20.7738-18.9022 20.8571-18.7169 20.916-18.4563 20.9505-18.1203 21.0007-17.8001 21.0258-17.4052 21.0258-16.9357 21.0258-16.4475 21.0007-16.0433 20.9505-15.7231 20.916-15.4029 20.8571-15.1423 20.7738-14.9412 20.6877-14.7546 20.5778-14.6196 20.4443-14.5363 20.3266-14.4516 20.1923-14.4092 20.0415-14.4092L10.1726-14.4092 10.1726-5.19723 21.9326-5.19723C22.0848-5.19723 22.2198-5.14697 22.3375-5.04646 22.4725-4.96174 22.5816-4.81815 22.6649-4.61569 22.7496-4.41467 22.8085-4.14615 22.8415-3.81015 22.8932-3.48995 22.9191-3.08574 22.9191-2.59754ZM49.9003-0.857231C49.9003-0.689231 49.8501-0.538462 49.7495-0.404923 49.649-0.285744 49.4803-0.184513 49.2434-0.101231 49.0079-0.0165128 48.6798 0.042359 48.2591 0.0753846 47.8556 0.125641 47.3509 0.150769 46.7449 0.150769 46.1232 0.150769 45.602 0.125641 45.1812 0.0753846 44.7763 0.042359 44.4561-0.0165128 44.2206-0.101231 43.9851-0.184513 43.8171-0.285026 43.7166-0.402769 43.6161-0.537744 43.5658-0.689231 43.5658-0.857231L43.5658-13.7049C43.5658-14.7991 43.4811-15.6577 43.3117-16.2809 43.1609-16.9027 42.9341-17.4325 42.6311-17.8705 42.3281-18.3242 41.9332-18.6688 41.4465-18.9043 40.9741-19.157 40.4184-19.2834 39.7794-19.2834 38.971-19.2834 38.1547-18.989 37.3305-18.4003 36.5063-17.8116 35.6483-16.9536 34.7566-15.8265L34.7566-0.857231C34.7566-0.689231 34.7064-0.538462 34.6058-0.404923 34.5053-0.285744 34.328-0.184513 34.0738-0.101231 33.8384-0.0165128 33.5189 0.042359 33.1154 0.0753846 32.7119 0.125641 32.1986 0.150769 31.5754 0.150769 30.9536 0.150769 30.4403 0.125641 30.0354 0.0753846 29.6333 0.042359 29.3052-0.0165128 29.0511-0.101231 28.8156-0.184513 28.6476-0.285026 28.5471-0.402769 28.4466-0.537744 28.3963-0.689231 28.3963-0.857231L28.3963-23.3735C28.3963-23.5415 28.438-23.6844 28.5212-23.8022 28.6059-23.9371 28.7574-24.0463 28.9757-24.1295 29.194-24.2143 29.4718-24.2731 29.8092-24.3062 30.1625-24.3564 30.6004-24.3815 31.1231-24.3815 31.6601-24.3815 32.1052-24.3564 32.4585-24.3062 32.8117-24.2731 33.0809-24.2143 33.2662-24.1295 33.4672-24.0463 33.6108-23.9371 33.6969-23.8022 33.7802-23.6844 33.8218-23.5408 33.8218-23.3714L33.8218-20.7738C35.0668-22.1193 36.3289-23.1287 37.6083-23.8022 38.9035-24.4756 40.2496-24.8123 41.6468-24.8123 43.1774-24.8123 44.4647-24.5596 45.5086-24.0542 46.5683-23.5487 47.4176-22.8588 48.0566-21.9843 48.7143-21.1256 49.186-20.1162 49.4717-18.956 49.7574-17.7944 49.9003-16.3972 49.9003-14.7646ZM68.9812-3.08C68.9812-2.33908 68.931-1.76687 68.8305-1.36338 68.7458-0.975692 68.628-0.697846 68.4772-0.529846 68.3265-0.379077 68.0996-0.235487 67.7966-0.0990769 67.5094 0.0172308 67.1648 0.117744 66.7628 0.202462 66.3751 0.302974 65.945 0.378359 65.4726 0.428615 65.0189 0.478872 64.5565 0.504 64.0855 0.504 62.8234 0.504 61.7292 0.344615 60.8031 0.0258462 59.8784-0.294359 59.113-0.782564 58.5071-1.43877 57.9011-2.11221 57.4553-2.95364 57.1695-3.96308 56.8824-4.97251 56.7388-6.16718 56.7388-7.54708L56.7388-19.0809 54.04-19.0809C53.7198-19.0809 53.4757-19.2748 53.3077-19.6625 53.1397-20.0659 53.0557-20.7308 53.0557-21.6569 53.0557-22.1451 53.0722-22.5572 53.1052-22.8932 53.1555-23.2292 53.223-23.4898 53.3077-23.6751 53.3924-23.8761 53.4929-24.0197 53.6092-24.1058 53.7442-24.1891 53.8964-24.2308 54.0658-24.2308L56.7409-24.2308 56.7409-29.2535C56.7409-29.4215 56.7826-29.573 56.8658-29.708 56.9664-29.843 57.1351-29.9521 57.372-30.0354 57.6233-30.1359 57.9514-30.2034 58.3563-30.2378 58.777-30.2881 59.2904-30.3132 59.8963-30.3132 60.5181-30.3132 61.0307-30.2881 61.4342-30.2378 61.8549-30.2048 62.183-30.1373 62.4185-30.0354 62.6554-29.9521 62.8241-29.843 62.9246-29.708 63.0251-29.573 63.0754-29.4215 63.0754-29.2535L63.0754-24.2308 67.9732-24.2308C68.1412-24.2308 68.2841-24.1884 68.4018-24.1037 68.5368-24.0204 68.646-23.8775 68.7292-23.6751 68.8139-23.4898 68.8728-23.2292 68.9059-22.8932 68.9561-22.5572 68.9812-22.1451 68.9812-21.6569 68.9812-20.7308 68.8972-20.066 68.7292-19.6625 68.5612-19.2748 68.3171-19.0809 67.9969-19.0809L63.0754-19.0809 63.0754-8.50554C63.0754-7.27785 63.2692-6.35241 63.6569-5.72923 64.0446-5.12328 64.7338-4.82031 65.7246-4.82031 66.0621-4.82031 66.365-4.84544 66.6335-4.89569 66.9035-4.96318 67.1397-5.03067 67.3422-5.09815L67.872-5.30062C68.0228-5.3681 68.157-5.40185 68.2748-5.40185 68.3753-5.40185 68.4686-5.3681 68.5548-5.30062 68.6553-5.25036 68.7307-5.13262 68.7809-4.94738 68.8312-4.77938 68.8728-4.5439 68.9059-4.24092 68.9561-3.93795 68.9812-3.55026 68.9812-3.07785ZM88.0385-21.2778C88.0385-20.6719 88.0219-20.1758 87.9889-19.7895 87.9545-19.4018 87.9042-19.0989 87.8382-18.8806 87.7692-18.6609 87.6759-18.5094 87.5582-18.4262 87.4576-18.3414 87.3234-18.2991 87.1554-18.2991 87.0204-18.2991 86.8689-18.3242 86.7009-18.3745 86.5329-18.4419 86.3391-18.5094 86.1194-18.5769 85.9184-18.6444 85.6915-18.7033 85.4388-18.7535 85.1861-18.821 84.9082-18.8548 84.6052-18.8548 84.252-18.8548 83.8988-18.7787 83.5455-18.6265 83.1923-18.4929 82.8218-18.2747 82.4342-17.9717 82.0651-17.6687 81.6703-17.2645 81.2495-16.7591 80.8446-16.2551 80.4067-15.6326 79.9357-14.8917L79.9357-0.857231C79.9357-0.689231 79.8854-0.538462 79.7849-0.404923 79.6844-0.285744 79.5078-0.184513 79.2551-0.101231 79.0196-0.0165128 78.7001 0.042359 78.2966 0.0753846 77.8917 0.125641 77.3784 0.150769 76.7566 0.150769 76.1334 0.150769 75.6201 0.125641 75.2166 0.0753846 74.8131 0.042359 74.485-0.0165128 74.2323-0.101231 73.9968-0.184513 73.8281-0.285026 73.7262-0.402769 73.6256-0.537744 73.5754-0.689231 73.5754-0.857231L73.5754-23.3735C73.5754-23.5415 73.6178-23.6844 73.7025-23.8022 73.7858-23.9371 73.9365-24.0463 74.1548-24.1295 74.3745-24.2143 74.6523-24.2731 74.9883-24.3062 75.343-24.3564 75.7809-24.3815 76.3022-24.3815 76.8406-24.3815 77.2858-24.3564 77.6375-24.3062 77.9922-24.2731 78.2622-24.2143 78.4474-24.1295 78.6484-24.0463 78.792-23.9371 78.8782-23.8022 78.9614-23.6844 79.0031-23.5408 79.0031-23.3714L79.0031-20.5714C79.5918-21.4128 80.1468-22.1021 80.668-22.6391 81.1892-23.1948 81.6861-23.6327 82.1585-23.9529 82.6294-24.2731 83.1004-24.4921 83.5714-24.6098 84.0424-24.7448 84.5133-24.8123 84.9843-24.8123 85.2026-24.8123 85.4381-24.7951 85.6908-24.7606 85.9435-24.7434 86.2041-24.7017 86.4726-24.6357 86.7426-24.584 86.9788-24.5165 87.1812-24.4332 87.3823-24.3657 87.5251-24.2896 87.6098-24.2049 87.7104-24.1216 87.7779-24.029 87.8123-23.9271 87.8626-23.8266 87.9042-23.6837 87.9372-23.4985 87.9717-23.3305 87.9968-23.0698 88.0126-22.7166 88.0298-22.3634 88.0385-21.8838 88.0385-21.2778ZM105.226 0 102.502 7.97569C102.349 8.39641 101.937 8.69938 101.265 8.88462 100.59 9.06985 99.6061 9.16246 98.3123 9.16246 97.6374 9.16246 97.099 9.12872 96.6969 9.06123 96.292 9.01097 95.989 8.91836 95.788 8.78339 95.5855 8.64841 95.4757 8.48041 95.4585 8.27939 95.4427 8.07836 95.4929 7.83426 95.6092 7.54708L98.616 0C98.3977-0.100513 98.196-0.251282 98.0108-0.452308 97.8428-0.672 97.7164-0.89959 97.6317-1.13508L89.8822-21.8335C89.6639-22.4223 89.5548-22.8674 89.5548-23.1689 89.5548-23.4891 89.6553-23.7332 89.8563-23.9012 90.0588-24.0879 90.3962-24.2143 90.8686-24.2803 91.3568-24.3478 91.9958-24.3815 92.7855-24.3815 93.5092-24.3815 94.0814-24.365 94.5022-24.332 94.9229-24.3148 95.251-24.2559 95.4865-24.1554 95.722-24.0549 95.8986-23.8948 96.0163-23.6751 96.1341-23.4741 96.2518-23.1797 96.3695-22.792L101.67-7.72369 101.746-7.72369 106.592-23.0957C106.692-23.5322 106.819-23.8179 106.971-23.9529 107.139-24.1051 107.408-24.2143 107.778-24.2803 108.149-24.3478 108.797-24.3815 109.721-24.3815 110.445-24.3815 111.042-24.3478 111.513-24.2803 112.001-24.2143 112.355-24.0886 112.575-23.9034 112.811-23.7167 112.928-23.464 112.928-23.1452 112.928-22.8437 112.861-22.4818 112.726-22.0597ZM151.088-22.7425C151.088-20.9074 150.802-19.2834 150.231-17.8705 149.659-16.4561 148.826-15.2614 147.732-14.2865 146.638-13.3273 145.292-12.595 143.694-12.0895 142.111-11.5855 140.243-11.3335 138.09-11.3335L135.365-11.3335 135.365-0.908923C135.365-0.740923 135.306-0.589436 135.188-0.454462 135.088-0.319487 134.911-0.210359 134.658-0.127077 134.406-0.042359 134.068 0.0251282 133.646 0.0753846 133.227 0.125641 132.688 0.150769 132.031 0.150769 131.392 0.150769 130.853 0.125641 130.415 0.0753846 129.996 0.0251282 129.66-0.042359 129.407-0.127077 129.155-0.210359 128.978-0.319487 128.878-0.454462 128.777-0.589436 128.727-0.740205 128.727-0.906769L128.727-30.2895C128.727-31.0793 128.928-31.668 129.33-32.0557 129.752-32.4592 130.3-32.6609 130.973-32.6609L138.671-32.6609C139.445-32.6609 140.177-32.6272 140.868-32.5597 141.574-32.5094 142.415-32.3831 143.39-32.1806 144.367-31.9968 145.351-31.6436 146.343-31.1209 147.353-30.5997 148.211-29.9349 148.919-29.1265 149.626-28.3367 150.164-27.4034 150.534-26.3265 150.903-25.2653 151.088-24.0707 151.088-22.7425ZM144.148-22.2622C144.148-23.4066 143.947-24.3485 143.543-25.088 143.138-25.8289 142.641-26.376 142.053-26.7292 141.464-27.0825 140.841-27.3014 140.185-27.3862 139.546-27.4867 138.881-27.5369 138.191-27.5369L135.365-27.5369 135.365-16.4575 138.342-16.4575C139.403-16.4575 140.286-16.6004 140.991-16.8862 141.716-17.1733 142.305-17.5682 142.759-18.0708 143.214-18.5934 143.559-19.208 143.793-19.9145 144.03-20.6382 144.148-21.4207 144.148-22.2622ZM177.794-12.3415C177.794-10.4246 177.541-8.67497 177.035-7.09262 176.531-5.51026 175.766-4.14759 174.739-3.00462 173.713-1.86021 172.425-0.977128 170.878-0.355385 169.33 0.269231 167.52 0.581538 165.45 0.581538 163.448 0.581538 161.707 0.303692 160.227-0.252 158.745-0.807692 157.517-1.61538 156.542-2.67508 155.565-3.73477 154.841-5.04 154.37-6.59077 153.899-8.13867 153.664-9.90482 153.664-11.8892 153.664-13.8076 153.916-15.558 154.42-17.1403 154.943-18.7385 155.717-20.1011 156.742-21.2283 157.769-22.3727 159.048-23.2558 160.58-23.8775 162.128-24.5022 163.937-24.8145 166.008-24.8145 168.025-24.8145 169.775-24.5366 171.257-23.9809 172.737-23.4425 173.957-22.6434 174.916-21.5837 175.892-20.5226 176.616-19.2181 177.087-17.6702 177.558-16.1223 177.794-14.3468 177.794-12.3437ZM171.257-12.0895C171.257-13.2009 171.163-14.219 170.977-15.1437 170.81-16.0871 170.516-16.9034 170.094-17.5926 169.674-18.2818 169.111-18.8203 168.405-19.208 167.714-19.5957 166.838-19.7895 165.777-19.7895 164.835-19.7895 164.011-19.6122 163.305-19.2575 162.598-18.9215 162.018-18.4168 161.564-17.7434 161.109-17.0872 160.765-16.2881 160.53-15.3462 160.311-14.42 160.201-13.3596 160.201-12.1649 160.201-11.055 160.294-10.0283 160.479-9.08492 160.664-8.16021 160.958-7.35323 161.362-6.664 161.783-5.97477 162.346-5.43631 163.053-5.04862 163.759-4.67815 164.634-4.49292 165.678-4.49292 166.637-4.49292 167.47-4.66092 168.177-4.99692 168.883-5.35015 169.464-5.85487 169.919-6.51108 170.373-7.16728 170.709-7.95846 170.927-8.88462 171.147-9.82656 171.257-10.8949 171.257-12.0895ZM189.177-0.857231C189.177-0.689231 189.126-0.538462 189.026-0.404923 188.925-0.285744 188.749-0.184513 188.496-0.101231 188.261-0.0165128 187.94 0.042359 187.535 0.0753846 187.133 0.125641 186.62 0.150769 185.995 0.150769 185.374 0.150769 184.861 0.125641 184.458 0.0753846 184.053 0.042359 183.725-0.0165128 183.473-0.101231 183.238-0.184513 183.069-0.285026 182.967-0.402769 182.867-0.537744 182.816-0.689231 182.816-0.857231L182.816-23.3218C182.816-23.4898 182.867-23.6334 182.967-23.7526 183.068-23.8862 183.236-23.9953 183.473-24.08 183.725-24.1805 184.053-24.2559 184.458-24.3062 184.86-24.3564 185.372-24.3815 185.995-24.3815 186.619-24.3815 187.132-24.3564 187.535-24.3062 187.94-24.2559 188.261-24.1805 188.496-24.08 188.747-23.9953 188.924-23.8854 189.026-23.7505 189.126-23.6327 189.177-23.4898 189.177-23.3218ZM189.657-30.996C189.657-29.7166 189.396-28.8335 188.873-28.3468 188.352-27.8586 187.385-27.6145 185.972-27.6145 184.542-27.6145 183.574-27.8492 183.068-28.3188 182.58-28.7912 182.336-29.6412 182.336-30.8689 182.336-32.1469 182.589-33.0299 183.094-33.5182 183.615-34.0236 184.592-34.2763 186.023-34.2763 187.436-34.2763 188.395-34.0322 188.899-33.544 189.404-33.073 189.657-32.2237 189.657-30.996ZM217.017-0.857231C217.017-0.689231 216.967-0.538462 216.866-0.404923 216.766-0.285744 216.597-0.184513 216.36-0.101231 216.125-0.0165128 215.797 0.042359 215.376 0.0753846 214.973 0.125641 214.468 0.150769 213.862 0.150769 213.239 0.150769 212.717 0.125641 212.296 0.0753846 211.894 0.042359 211.574-0.0165128 211.338-0.101231 211.102-0.184513 210.934-0.285026 210.834-0.402769 210.733-0.537744 210.683-0.689231 210.683-0.857231L210.683-13.7049C210.683-14.7991 210.598-15.6577 210.429-16.2809 210.278-16.9027 210.051-17.4325 209.748-17.8705 209.445-18.3242 209.049-18.6688 208.561-18.9043 208.09-19.157 207.535-19.2834 206.896-19.2834 206.088-19.2834 205.272-18.989 204.447-18.4003 203.623-17.8116 202.765-16.9536 201.874-15.8265L201.874-0.857231C201.874-0.689231 201.823-0.538462 201.723-0.404923 201.621-0.285744 201.443-0.184513 201.191-0.101231 200.955-0.0165128 200.636 0.042359 200.232 0.0753846 199.829 0.125641 199.315 0.150769 198.692 0.150769 198.069 0.150769 197.556 0.125641 197.152 0.0753846 196.749 0.042359 196.421-0.0165128 196.168-0.101231 195.933-0.184513 195.765-0.285026 195.664-0.402769 195.563-0.537744 195.513-0.689231 195.513-0.857231L195.513-23.3735C195.513-23.5415 195.555-23.6844 195.638-23.8022 195.723-23.9371 195.874-24.0463 196.093-24.1295 196.311-24.2143 196.589-24.2731 196.926-24.3062 197.279-24.3564 197.717-24.3815 198.24-24.3815 198.777-24.3815 199.222-24.3564 199.575-24.3062 199.929-24.2731 200.198-24.2143 200.383-24.1295 200.584-24.0463 200.728-23.9371 200.814-23.8022 200.897-23.6844 200.939-23.5408 200.939-23.3714L200.939-20.7738C202.184-22.1193 203.446-23.1287 204.725-23.8022 206.02-24.4756 207.367-24.8123 208.764-24.8123 210.294-24.8123 211.582-24.5596 212.626-24.0542 213.685-23.5487 214.535-22.8588 215.174-21.9843 215.83-21.1256 216.301-20.1162 216.589-18.956 216.874-17.7944 217.017-16.3972 217.017-14.7646ZM236.098-3.08C236.098-2.33908 236.048-1.76687 235.947-1.36338 235.863-0.975692 235.745-0.697846 235.594-0.529846 235.442-0.379077 235.214-0.235487 234.911-0.0990769 234.626 0.0172308 234.281 0.117744 233.878 0.202462 233.49 0.302974 233.061 0.378359 232.59 0.428615 232.136 0.478872 231.673 0.504 231.202 0.504 229.939 0.504 228.845 0.344615 227.92 0.0258462 226.995-0.294359 226.23-0.782564 225.624-1.43877 225.018-2.11221 224.572-2.95364 224.286-3.96308 223.999-4.97251 223.856-6.16718 223.856-7.54708L223.856-19.0809 221.157-19.0809C220.837-19.0809 220.593-19.2748 220.425-19.6625 220.257-20.0659 220.173-20.7308 220.173-21.6569 220.173-22.1451 220.189-22.5572 220.222-22.8932 220.272-23.2292 220.34-23.4898 220.425-23.6751 220.508-23.8761 220.608-24.0197 220.726-24.1058 220.861-24.1891 221.013-24.2308 221.181-24.2308L223.858-24.2308 223.858-29.2535C223.858-29.4215 223.899-29.573 223.983-29.708 224.083-29.843 224.251-29.9521 224.487-30.0354 224.739-30.1359 225.068-30.2034 225.473-30.2378 225.893-30.2881 226.405-30.3132 227.011-30.3132 227.634-30.3132 228.148-30.2881 228.551-30.2378 228.972-30.2048 229.3-30.1373 229.535-30.0354 229.771-29.9521 229.94-29.843 230.042-29.708 230.142-29.573 230.192-29.4215 230.192-29.2535L230.192-24.2308 235.088-24.2308C235.257-24.2308 235.401-24.1884 235.519-24.1037 235.652-24.0204 235.761-23.8775 235.846-23.6751 235.931-23.4898 235.99-23.2292 236.023-22.8932 236.073-22.5572 236.098-22.1451 236.098-21.6569 236.098-20.7308 236.014-20.066 235.846-19.6625 235.678-19.2748 235.434-19.0809 235.114-19.0809L230.192-19.0809 230.192-8.50554C230.192-7.27785 230.386-6.35241 230.774-5.72923 231.162-5.12328 231.851-4.82031 232.842-4.82031 233.179-4.82031 233.482-4.84544 233.75-4.89569 234.02-4.96318 234.256-5.03067 234.457-5.09815L234.989-5.30062C235.14-5.3681 235.274-5.40185 235.392-5.40185 235.492-5.40185 235.585-5.3681 235.67-5.30062 235.77-5.25036 235.845-5.13262 235.896-4.94738 235.947-4.77938 235.99-4.5439 236.023-4.24092 236.073-3.93795 236.098-3.55026 236.098-3.07785Z" fill="#FFFFFF" transform="matrix(1.00244 0 0 1 521.127 89.7692)"/><path d="M1110.31 757.077 1364.46 757.077 1364.46 848.622C1237.38 848.622 1237.38 883.503 1110.31 863.684Z" stroke="#2F528F" stroke-width="2.87108" stroke-miterlimit="8" fill="#B4C7E7" fill-rule="evenodd" transform="matrix(1.00244 0 0 1 -741.818 -640.385)"/><path d="M17.2803-15.1631C17.2803-13.9383 17.0901-12.8549 16.7095-11.9129 16.3276-10.971 15.7719-10.1741 15.0425-9.52215 14.3145-8.88462 13.417-8.39713 12.3502-8.05969 11.2962-7.72369 10.0513-7.55569 8.61539-7.55569L6.79754-7.55569 6.79754-0.603077C6.79754-0.491077 6.75877-0.390564 6.68123-0.301538 6.61374-0.211077 6.496-0.137846 6.328-0.0818462 6.15856-0.0272821 5.93313 0.0165128 5.65169 0.0495385 5.37169 0.084 5.01272 0.101231 4.57477 0.101231 4.14831 0.101231 3.78933 0.084 3.49785 0.0495385 3.21928 0.0165128 2.99528-0.028 2.82585-0.084 2.65785-0.141436 2.5401-0.214667 2.47262-0.303692 2.40656-0.392718 2.37354-0.493231 2.37354-0.605231L2.37354-20.1923C2.37354-20.7193 2.5078-21.112 2.77631-21.3705 3.05631-21.639 3.42103-21.7732 3.87046-21.7732L9.00308-21.7732C9.52-21.7732 10.0082-21.7517 10.4677-21.7086 10.9372-21.6742 11.4972-21.5894 12.1477-21.4545 12.7996-21.331 13.4565-21.0955 14.1185-20.748 14.7905-20.4005 15.3627-19.9575 15.8351-19.4191 16.3061-18.8907 16.665-18.2675 16.912-17.5495 17.1575-16.8431 17.2803-16.0469 17.2803-15.1609ZM12.6538-14.84C12.6538-15.6039 12.5189-16.2328 12.2489-16.7268 11.9804-17.2193 11.6502-17.5833 11.2582-17.8188 10.8647-18.0557 10.449-18.2022 10.0111-18.2582 9.58605-18.3242 9.14308-18.3572 8.68215-18.3572L6.79754-18.3572 6.79754-10.9695 8.78339-10.9695C9.48985-10.9695 10.0786-11.0657 10.5495-11.2582 11.032-11.4477 11.4247-11.7112 11.7277-12.0486 12.0307-12.3961 12.2604-12.8053 12.4169-13.2763 12.5749-13.7588 12.6538-14.2807 12.6538-14.8422ZM32.5769-0.521231C32.5769-0.363282 32.5209-0.239795 32.4089-0.150769 32.2969-0.0617436 32.1174 -1.99271e-17 31.8705 0.0344615 31.635 0.0775385 31.2817 0.0990769 30.8108 0.0990769 30.3053 0.0990769 29.9349 0.0775385 29.6994 0.0344615 29.4754 5.45612e-10 29.3131-0.0617436 29.2126-0.150769 29.1222-0.241231 29.0769-0.364718 29.0769-0.521231L29.0769-1.71662C28.4595-1.05467 27.753-0.538462 26.9575-0.168 26.1721 0.202462 25.2962 0.387692 24.3298 0.387692 23.5344 0.387692 22.7999 0.280718 22.1265 0.0667692 21.466-0.134256 20.8887-0.437231 20.3948-0.842154 19.9123-1.25713 19.5361-1.76687 19.2662-2.37138 18.9976-2.97733 18.8634-3.68451 18.8634-4.49292 18.8634-5.36882 19.0314-6.12626 19.3674-6.76523 19.7149-7.41569 20.2253-7.94841 20.8988-8.36339 21.5837-8.78985 22.4309-9.10359 23.4403-9.30462 24.4497-9.50564 25.6222-9.60615 26.9575-9.60615L28.4222-9.60615 28.4222-10.5172C28.4222-10.9882 28.3712-11.3974 28.2692-11.7449 28.1802-12.1039 28.023-12.4011 27.7975-12.6366 27.585-12.8721 27.2935-13.0458 26.9231-13.1578 26.5641-13.2713 26.1154-13.328 25.5769-13.328 24.8705-13.328 24.2365-13.249 23.6751-13.0911 23.1251-12.9331 22.6369-12.7594 22.2105-12.5698 21.7854-12.3789 21.4265-12.2051 21.1335-12.0486 20.8535-11.8907 20.6238-11.8117 20.4443-11.8117 20.3208-11.8117 20.2088-11.8512 20.1083-11.9302 20.0178-12.0091 19.9389-12.1211 19.8714-12.2662 19.8154-12.4126 19.7709-12.5921 19.7378-12.8046 19.7048-13.0186 19.6883-13.2541 19.6883-13.5111 19.6883-13.86 19.7163-14.135 19.7723-14.336 19.8283-14.537 19.9346-14.7165 20.0911-14.8745 20.249-15.0425 20.524-15.2219 20.916-15.4129 21.308-15.6139 21.7675-15.7992 22.2945-15.9686 22.8229-16.1366 23.3951-16.2716 24.0111-16.3735 24.64-16.4855 25.2854-16.5415 25.9474-16.5415 27.1248-16.5415 28.1285-16.4238 28.9585-16.1883 29.7999-15.9629 30.4898-15.6089 31.0283-15.1265 31.5668-14.6555 31.9595-14.0445 32.2065-13.2935 32.4534-12.5411 32.5769-11.6494 32.5769-10.6185ZM28.42-6.95046 26.8046-6.95046C26.1211-6.95046 25.5382-6.90021 25.0557-6.79969 24.5732-6.69774 24.1805-6.54554 23.8775-6.34308 23.5746-6.14205 23.3498-5.89579 23.2034-5.60431 23.0698-5.32287 23.0031-4.99692 23.0031-4.62646 23.0031-3.99897 23.1991-3.50574 23.5911-3.14677 23.9946-2.7878 24.5503-2.60831 25.2582-2.60831 25.8526-2.60831 26.3961-2.75908 26.8886-3.06062 27.3941-3.36503 27.9045-3.80872 28.42-4.39169ZM46.4434-14.1852C46.4434-13.7817 46.4319-13.4508 46.4089-13.1923 46.386-12.9338 46.3522-12.7321 46.3077-12.5871 46.2632-12.4406 46.2014-12.3401 46.1225-12.2855 46.055-12.2281 45.9652-12.1994 45.8532-12.1994 45.7642-12.1994 45.6637-12.2159 45.5517-12.2489 45.4383-12.2949 45.309-12.3401 45.164-12.3846 45.029-12.4291 44.8775-12.4686 44.7095-12.5031 44.5415-12.5462 44.3563-12.5677 44.1538-12.5677 43.9184-12.5677 43.6829-12.5174 43.4474-12.4169 43.2119-12.3279 42.9649-12.1822 42.7065-11.9797 42.4595-11.7787 42.196-11.5094 41.916-11.172 41.6461-10.836 41.3546-10.421 41.0415-9.92708L41.0415-0.572923C41.0415-0.459487 41.0078-0.358256 40.9403-0.269231 40.8728-0.190256 40.7551-0.122769 40.5871-0.0667692 40.4291-0.0107692 40.2159 0.028 39.9474 0.0495385 39.6774 0.084 39.335 0.101231 38.92 0.101231 38.505 0.101231 38.1633 0.084 37.8948 0.0495385 37.6248 0.028 37.4058-0.0107692 37.2378-0.0667692 37.0799-0.124205 36.9679-0.191692 36.9018-0.269231 36.8344-0.358256 36.8006-0.458769 36.8006-0.570769L36.8006-15.5831C36.8006-15.6936 36.8286-15.7884 36.8846-15.8674 36.9421-15.9578 37.0426-16.0311 37.1862-16.0871 37.3326-16.1431 37.5178-16.1818 37.7418-16.2034 37.9788-16.2378 38.271-16.2551 38.6185-16.2551 38.9774-16.2551 39.2747-16.2378 39.5102-16.2034 39.7456-16.1818 39.9251-16.1431 40.0486-16.0871 40.1836-16.0296 40.2791-15.9564 40.3351-15.8674 40.3911-15.7884 40.4191-15.6929 40.4191-15.5809L40.4191-13.7135C40.8111-14.2735 41.1808-14.733 41.5283-15.092 41.8758-15.4639 42.2068-15.7561 42.5212-15.9686 42.8357-16.1811 43.1502-16.3269 43.4646-16.4058 43.7776-16.4963 44.0914-16.5415 44.4058-16.5415 44.5523-16.5415 44.7095-16.5301 44.8775-16.5071 45.0455-16.4956 45.2193-16.4676 45.3988-16.4231 45.5783-16.3901 45.7355-16.3448 45.8705-16.2874 46.0054-16.2443 46.1009-16.1941 46.1569-16.1366 46.2244-16.0806 46.2689-16.0189 46.2905-15.9514 46.3249-15.8839 46.3536-15.7884 46.3766-15.6649 46.3982-15.5529 46.4147-15.3792 46.4262-15.1437 46.4362-14.9082 46.4412-14.5887 46.4412-14.1852ZM61.0831-0.521231C61.0831-0.363282 61.0264-0.239795 60.9129-0.150769 60.8009-0.0617436 60.6214 -1.99271e-17 60.3745 0.0344615 60.139 0.0775385 59.7857 0.0990769 59.3148 0.0990769 58.8093 0.0990769 58.4389 0.0775385 58.2034 0.0344615 57.9794 5.45612e-10 57.8171-0.0617436 57.7166-0.150769 57.6262-0.241231 57.5809-0.364718 57.5809-0.521231L57.5809-1.71662C56.9635-1.05467 56.257-0.538462 55.4615-0.168 54.6761 0.202462 53.8009 0.387692 52.836 0.387692 52.0405 0.387692 51.3061 0.280718 50.6326 0.0667692 49.9707-0.134256 49.3927-0.437231 48.8988-0.842154 48.4163-1.25713 48.0408-1.76687 47.7723-2.37138 47.5024-2.97733 47.3674-3.68451 47.3674-4.49292 47.3674-5.36882 47.5361-6.12626 47.8735-6.76523 48.221-7.41569 48.7308-7.94841 49.4028-8.36339 50.0877-8.78985 50.9349-9.10359 51.9443-9.30462 52.9537-9.50564 54.1262-9.60615 55.4615-9.60615L56.9262-9.60615 56.9262-10.5172C56.9262-10.9882 56.8759-11.3974 56.7754-11.7449 56.6849-12.1039 56.527-12.4011 56.3015-12.6366 56.089-12.8721 55.7975-13.0458 55.4271-13.1578 55.0681-13.2713 54.6194-13.328 54.0809-13.328 53.3745-13.328 52.7412-13.249 52.1812-13.0911 51.6313-12.9331 51.1431-12.7594 50.7166-12.5698 50.2902-12.3789 49.9312-12.2051 49.6397-12.0486 49.3597-11.8907 49.13-11.8117 48.9505-11.8117 48.827-11.8117 48.7143-11.8512 48.6123-11.9302 48.5233-12.0091 48.4443-12.1211 48.3754-12.2662 48.3208-12.4126 48.2763-12.5921 48.2419-12.8046 48.2088-13.0186 48.1923-13.2541 48.1923-13.5111 48.1923-13.86 48.221-14.135 48.2785-14.336 48.333-14.537 48.4386-14.7165 48.5951-14.8745 48.753-15.0425 49.028-15.2219 49.42-15.4129 49.8134-15.6139 50.2729-15.7992 50.7985-15.9686 51.3269-16.1366 51.8998-16.2716 52.5172-16.3735 53.1447-16.4855 53.7894-16.5415 54.4514-16.5415 55.6288-16.5415 56.6332-16.4238 57.4646-16.1883 58.3061-15.9629 58.9953-15.6089 59.5323-15.1265 60.0722-14.6555 60.4649-14.0445 60.7105-13.2935 60.9574-12.5411 61.0809-11.6494 61.0809-10.6185ZM56.9262-6.95046 55.3108-6.95046C54.6258-6.95046 54.0422-6.90021 53.5597-6.79969 53.0772-6.69774 52.6845-6.54554 52.3815-6.34308 52.08-6.14205 51.856-5.89579 51.7095-5.60431 51.5746-5.32287 51.5071-4.99692 51.5071-4.62646 51.5071-3.99897 51.7031-3.50574 52.0951-3.14677 52.5-2.7878 53.0557-2.60831 53.7622-2.60831 54.3566-2.60831 54.9008-2.75908 55.3948-3.06062 55.8988-3.36503 56.4085-3.80872 56.924-4.39169ZM89.1822-0.572923C89.1822-0.459487 89.1484-0.358256 89.0809-0.269231 89.0149-0.190256 88.9029-0.122769 88.7449-0.0667692 88.587-0.0107692 88.3737 0.028 88.1052 0.0495385 87.8367 0.084 87.495 0.101231 87.08 0.101231 86.6535 0.101231 86.3053 0.084 86.0354 0.0495385 85.7669 0.028 85.5486-0.0107692 85.3806-0.0667692 85.2227-0.124205 85.11-0.191692 85.0425-0.269231 84.9865-0.359692 84.9585-0.460205 84.9585-0.570769L84.9585-9.47262C84.9585-9.97805 84.9082-10.4383 84.8077-10.8532 84.7172-11.2696 84.5715-11.6229 84.3705-11.9129 84.1795-12.2159 83.9325-12.4456 83.6295-12.6022 83.3381-12.7716 82.9848-12.8563 82.5698-12.8563 82.0644-12.8563 81.554-12.6596 81.0385-12.2662 80.5215-11.8742 79.9608-11.3019 79.3563-10.5495L79.3563-0.572923C79.3563-0.459487 79.3226-0.358256 79.2551-0.269231 79.1876-0.190256 79.0698-0.122769 78.9018-0.0667692 78.7439-0.0107692 78.5307 0.028 78.2622 0.0495385 77.9922 0.084 77.6555 0.101231 77.252 0.101231 76.837 0.101231 76.4953 0.084 76.2268 0.0495385 75.9568 0.028 75.7379-0.0107692 75.5698-0.0667692 75.4119-0.124205 75.2999-0.191692 75.2338-0.269231 75.1664-0.359692 75.1326-0.460205 75.1326-0.570769L75.1326-9.47262C75.1326-9.97805 75.0824-10.4383 74.9818-10.8532 74.8914-11.2696 74.7507-11.6229 74.5597-11.9129 74.3687-12.2159 74.1217-12.4456 73.8188-12.6022 73.5172-12.7716 73.164-12.8563 72.7591-12.8563 72.2422-12.8563 71.7267-12.6596 71.2126-12.2662 70.6957-11.8742 70.14-11.3019 69.5455-10.5495L69.5455-0.572923C69.5455-0.459487 69.5118-0.358256 69.4443-0.269231 69.3768-0.190256 69.2591-0.122769 69.0911-0.0667692 68.9331-0.0107692 68.7199 0.028 68.4514 0.0495385 68.1829 0.084 67.8411 0.101231 67.4262 0.101231 67.0098 0.101231 66.6673 0.084 66.3988 0.0495385 66.1303 0.028 65.9113-0.0107692 65.7419-0.0667692 65.5853-0.124205 65.4733-0.191692 65.4059-0.269231 65.3384-0.359692 65.3046-0.460205 65.3046-0.570769L65.3046-15.5831C65.3046-15.6936 65.3333-15.7884 65.3908-15.8674 65.4453-15.9578 65.5458-16.0311 65.6923-16.0871 65.8388-16.1431 66.024-16.1818 66.248-16.2034 66.4835-16.2378 66.775-16.2551 67.1225-16.2551 67.4814-16.2551 67.7787-16.2378 68.0142-16.2034 68.2496-16.1818 68.4291-16.1431 68.5526-16.0871 68.6876-16.0296 68.7831-15.9564 68.8391-15.8674 68.8951-15.7898 68.9231-15.6944 68.9231-15.5809L68.9231-13.8492C69.753-14.7467 70.5772-15.4194 71.3957-15.8674 72.2271-16.3168 73.0915-16.5415 73.9889-16.5415 74.6064-16.5415 75.1613-16.4741 75.6538-16.3391 76.1478-16.2156 76.5857-16.0304 76.9677-15.7834 77.3597-15.5479 77.6957-15.2622 77.9757-14.9262 78.2557-14.5887 78.4912-14.2125 78.6822-13.7975 79.1316-14.28 79.5695-14.695 79.996-15.0425 80.4325-15.3914 80.8583-15.6721 81.2732-15.8846 81.6997-16.1086 82.1204-16.2716 82.5354-16.3735 82.9619-16.4855 83.3941-16.5415 83.832-16.5415 84.83-16.5415 85.6714-16.3728 86.3563-16.0354 87.0398-15.6994 87.589-15.2399 88.004-14.6569 88.4305-14.084 88.7334-13.4106 88.9129-12.6366 89.0924-11.8627 89.1822-11.0442 89.1822-10.1812ZM107.203-8.51415C107.203-7.99723 107.086-7.616 106.85-7.37046 106.626-7.12349 106.312-7 105.909-7L96.7723-7C96.7723-6.36103 96.8448-5.77733 96.9898-5.24892 97.1478-4.73344 97.389-4.29046 97.7135-3.92 98.051-3.56103 98.4774-3.28605 98.9929-3.09508 99.5199-2.90554 100.148-2.81077 100.878-2.81077 101.618-2.81077 102.269-2.86103 102.829-2.96154 103.389-3.07354 103.871-3.19128 104.276-3.31477 104.693-3.44974 105.035-3.56749 105.304-3.668 105.572-3.78 105.79-3.836 105.958-3.836 106.059-3.836 106.144-3.81374 106.213-3.76923 106.279-3.73621 106.335-3.66872 106.381-3.56677 106.424-3.46626 106.452-3.32051 106.465-3.12954 106.486-2.95005 106.497-2.72031 106.497-2.44031 106.497-2.19333 106.492-1.9801 106.482-1.80062 106.47-1.63262 106.453-1.48687 106.43-1.36338 106.407-1.2399 106.373-1.13292 106.329-1.04246 106.284-0.964923 106.223-0.886667 106.144-0.807692 106.076-0.728718 105.88-0.622462 105.556-0.488923 105.23-0.353949 104.815-0.218974 104.311-0.084 103.805 0.0394872 103.227 0.145744 102.577 0.234769 101.926 0.335282 101.231 0.385538 100.49 0.385538 99.1545 0.385538 97.9821 0.217538 96.9726-0.118462 95.9747-0.454462 95.139-0.964205 94.4655-1.64769 93.7935-2.33262 93.2888-3.19703 92.9514-4.24092 92.6269-5.28338 92.4646-6.50605 92.4646-7.90892 92.4646-9.24431 92.6384-10.4447 92.9859-11.5102 93.3333-12.5871 93.8381-13.4953 94.5-14.2348 95.1605-14.9872 95.9625-15.5594 96.9059-15.9514 97.8593-16.3448 98.9305-16.5415 100.119-16.5415 101.376-16.5415 102.448-16.3563 103.335-15.9858 104.233-15.6154 104.967-15.0992 105.538-14.4372 106.11-13.7868 106.531-13.0128 106.801-12.1154 107.069-11.2179 107.203-10.2415 107.203-9.18615ZM103.098-9.72677C103.133-10.9157 102.891-11.8462 102.374-12.5182 101.87-13.2031 101.086-13.5455 100.02-13.5455 99.4804-13.5455 99.0087-13.445 98.6052-13.244 98.2132-13.0415 97.883-12.7666 97.6145-12.4191 97.356-12.0816 97.1535-11.6774 97.0071-11.2065 96.8721-10.747 96.7931-10.2537 96.7702-9.72677ZM119.336-2.05262C119.336-1.55867 119.302-1.17744 119.235-0.908923 119.179-0.650462 119.101-0.465231 119-0.353231 118.899-0.252718 118.749-0.157231 118.548-0.0667692 118.355 0.0107692 118.125 0.0775385 117.856 0.133538 117.598 0.201026 117.311 0.251282 116.997 0.284308 116.695 0.318769 116.387 0.336 116.071 0.336 115.231 0.336 114.502 0.229744 113.885 0.0172308 113.267-0.196718 112.757-0.521949 112.355-0.958462 111.95-1.4079 111.653-1.96933 111.462-2.64277 111.271-3.31477 111.175-4.11097 111.175-5.03138L111.175-12.7206 109.374-12.7206C109.162-12.7206 109-12.8498 108.888-13.1083 108.776-13.3768 108.72-13.8198 108.72-14.4372 108.72-14.7632 108.73-15.0382 108.752-15.2622 108.786-15.4862 108.832-15.6599 108.888-15.7834 108.944-15.9184 109.01-16.0138 109.088-16.0698 109.178-16.1258 109.28-16.1538 109.392-16.1538L111.175-16.1538 111.175-19.5031C111.175-19.6151 111.204-19.7156 111.261-19.8046 111.327-19.8951 111.439-19.9683 111.595-20.0243 111.765-20.0918 111.983-20.1363 112.252-20.1578 112.532-20.1923 112.874-20.2095 113.279-20.2095 113.694-20.2095 114.036-20.1923 114.305-20.1578 114.586-20.1363 114.805-20.0918 114.962-20.0243 115.119-19.9669 115.231-19.8936 115.298-19.8046 115.365-19.7156 115.399-19.6151 115.399-19.5031L115.399-16.1538 118.664-16.1538C118.776-16.1538 118.871-16.1251 118.95-16.0677 119.039-16.0131 119.112-15.9184 119.168-15.7834 119.225-15.6599 119.265-15.4862 119.286-15.2622 119.319-15.0382 119.336-14.7632 119.336-14.4372 119.336-13.8198 119.28-13.3768 119.168-13.1083 119.056-12.8498 118.894-12.7206 118.681-12.7206L115.399-12.7206 115.399-5.67108C115.399-4.85262 115.528-4.23518 115.786-3.81877 116.045-3.41672 116.504-3.21569 117.165-3.21569 117.39-3.21569 117.593-3.23221 117.772-3.26523 117.952-3.30831 118.108-3.35282 118.242-3.39877L118.595-3.53446C118.696-3.57754 118.786-3.59908 118.866-3.59908 118.933-3.59908 118.994-3.57754 119.05-3.53446 119.117-3.5 119.167-3.42103 119.2-3.29754 119.235-3.18554 119.263-3.02831 119.286-2.82585 119.319-2.62482 119.336-2.36708 119.336-2.05262ZM135.843-8.51415C135.843-7.99723 135.725-7.616 135.49-7.37046 135.266-7.12349 134.952-7 134.549-7L125.412-7C125.412-6.36103 125.485-5.77733 125.63-5.24892 125.787-4.73344 126.029-4.29046 126.353-3.92 126.689-3.56103 127.116-3.28605 127.633-3.09508 128.16-2.90554 128.788-2.81077 129.517-2.81077 130.257-2.81077 130.907-2.86103 131.469-2.96154 132.029-3.07354 132.511-3.19128 132.916-3.31477 133.331-3.44974 133.673-3.56749 133.943-3.668 134.212-3.78 134.43-3.836 134.598-3.836 134.699-3.836 134.783-3.81374 134.85-3.76923 134.918-3.73621 134.974-3.66872 135.02-3.56677 135.063-3.46626 135.091-3.32051 135.104-3.12954 135.126-2.95005 135.137-2.72031 135.137-2.44031 135.137-2.19333 135.131-1.9801 135.119-1.80062 135.109-1.63262 135.093-1.48687 135.07-1.36338 135.047-1.2399 135.013-1.13292 134.969-1.04246 134.924-0.964923 134.862-0.886667 134.783-0.807692 134.716-0.728718 134.52-0.622462 134.195-0.488923 133.869-0.353949 133.454-0.218974 132.95-0.084 132.445 0.0394872 131.867 0.145744 131.217 0.234769 130.566 0.335282 129.87 0.385538 129.13 0.385538 127.794 0.385538 126.622 0.217538 125.612-0.118462 124.614-0.454462 123.779-0.964205 123.105-1.64769 122.433-2.33262 121.929-3.19703 121.591-4.24092 121.267-5.28338 121.104-6.50605 121.104-7.90892 121.104-9.24431 121.278-10.4447 121.626-11.5102 121.973-12.5871 122.478-13.4953 123.14-14.2348 123.8-14.9872 124.602-15.5594 125.546-15.9514 126.499-16.3448 127.57-16.5415 128.759-16.5415 130.016-16.5415 131.087-16.3563 131.973-15.9858 132.87-15.6154 133.605-15.0992 134.178-14.4372 134.75-13.7868 135.17-13.0128 135.44-12.1154 135.709-11.2179 135.843-10.2415 135.843-9.18615ZM131.738-9.72677C131.771-10.9157 131.53-11.8462 131.014-12.5182 130.51-13.2031 129.725-13.5455 128.658-13.5455 128.119-13.5455 127.648-13.445 127.245-13.244 126.853-13.0415 126.523-12.7666 126.254-12.4191 125.996-12.0816 125.793-11.6774 125.647-11.2065 125.512-10.747 125.433-10.2537 125.41-9.72677ZM148.969-14.1852C148.969-13.7817 148.957-13.4508 148.934-13.1923 148.913-12.9338 148.88-12.7321 148.835-12.5871 148.789-12.4406 148.727-12.3401 148.65-12.2855 148.582-12.2281 148.493-12.1994 148.381-12.1994 148.29-12.1994 148.189-12.2159 148.077-12.2489 147.965-12.2949 147.836-12.3401 147.689-12.3846 147.556-12.4291 147.405-12.4686 147.237-12.5031 147.067-12.5462 146.882-12.5677 146.681-12.5677 146.444-12.5677 146.208-12.5174 145.973-12.4169 145.737-12.3279 145.491-12.1822 145.234-11.9797 144.987-11.7787 144.723-11.5094 144.441-11.172 144.173-10.836 143.881-10.421 143.567-9.92708L143.567-0.572923C143.567-0.459487 143.533-0.358256 143.466-0.269231 143.399-0.190256 143.282-0.122769 143.112-0.0667692 142.954-0.0107692 142.741 0.028 142.473 0.0495385 142.204 0.084 141.862 0.101231 141.447 0.101231 141.031 0.101231 140.689 0.084 140.42 0.0495385 140.152 0.028 139.933-0.0107692 139.765-0.0667692 139.607-0.124205 139.495-0.191692 139.427-0.269231 139.361-0.359692 139.328-0.460205 139.328-0.570769L139.328-15.5831C139.328-15.6936 139.356-15.7884 139.412-15.8674 139.468-15.9578 139.569-16.0311 139.714-16.0871 139.86-16.1431 140.045-16.1818 140.269-16.2034 140.505-16.2378 140.796-16.2551 141.144-16.2551 141.503-16.2551 141.8-16.2378 142.035-16.2034 142.271-16.1818 142.45-16.1431 142.574-16.0871 142.709-16.0296 142.804-15.9564 142.86-15.8674 142.918-15.7898 142.946-15.6944 142.946-15.5809L142.946-13.7135C143.338-14.2735 143.708-14.733 144.056-15.092 144.403-15.4639 144.733-15.7561 145.046-15.9686 145.362-16.1826 145.677-16.3283 145.99-16.4058 146.304-16.4963 146.619-16.5415 146.933-16.5415 147.078-16.5415 147.235-16.5301 147.403-16.5071 147.572-16.4956 147.747-16.4676 147.926-16.4231 148.106-16.3901 148.262-16.3448 148.396-16.2874 148.531-16.2443 148.626-16.1941 148.682-16.1366 148.75-16.0806 148.795-16.0189 148.818-15.9514 148.851-15.8839 148.879-15.7884 148.902-15.6649 148.923-15.5529 148.94-15.3792 148.951-15.1437 148.963-14.9082 148.969-14.5887 148.969-14.1852ZM161.724-4.81169C161.724-3.96021 161.561-3.20923 161.235-2.55877 160.922-1.90687 160.473-1.36267 159.889-0.926154 159.306-0.488205 158.616-0.162974 157.821 0.0495385 157.024 0.274974 156.16 0.387692 155.228 0.387692 154.668 0.387692 154.129 0.342462 153.612 0.252 153.108 0.173026 152.655 0.0725128 152.251-0.0495385 151.846-0.184513 151.509-0.319487 151.239-0.454462 150.97-0.589436 150.774-0.712923 150.651-0.824923 150.527-0.94841 150.433-1.13364 150.366-1.38062 150.299-1.63908 150.265-2.01456 150.265-2.50708 150.265-2.83303 150.276-3.09149 150.298-3.28246 150.321-3.48349 150.354-3.64 150.399-3.752 150.443-3.87549 150.499-3.95446 150.567-3.98892 150.634-4.032 150.718-4.05354 150.819-4.05354 150.942-4.05354 151.122-3.98174 151.357-3.83815 151.604-3.70174 151.907-3.54954 152.266-3.38154 152.625-3.21354 153.04-3.05703 153.511-2.912 153.994-2.76554 154.538-2.69231 155.144-2.69231 155.526-2.69231 155.862-2.7318 156.154-2.81077 156.455-2.88831 156.714-3.00031 156.929-3.14677 157.153-3.2918 157.321-3.47703 157.433-3.70246 157.545-3.92646 157.601-4.18492 157.601-4.47785 157.601-4.81241 157.494-5.09815 157.28-5.33508 157.079-5.58062 156.805-5.79313 156.458-5.97262 156.12-6.1521 155.732-6.32082 155.294-6.47877 154.869-6.63672 154.426-6.81046 153.966-7 153.518-7.19097 153.075-7.40995 152.637-7.65692 152.21-7.9039 151.823-8.20687 151.476-8.56585 151.14-8.92482 150.865-9.35631 150.651-9.86031 150.45-10.3657 150.349-10.9717 150.349-11.6782 150.349-12.3961 150.489-13.0523 150.769-13.6468 151.049-14.2527 151.453-14.7689 151.982-15.1954 152.509-15.6218 153.148-15.9521 153.899-16.1862 154.661-16.4231 155.514-16.5415 156.458-16.5415 156.929-16.5415 157.382-16.5078 157.819-16.4403 158.268-16.3728 158.672-16.2888 159.031-16.1883 159.39-16.0878 159.693-15.9751 159.94-15.8502 160.187-15.7382 160.361-15.6376 160.462-15.5486 160.574-15.4696 160.653-15.3856 160.698-15.2966 160.742-15.2176 160.775-15.1164 160.798-14.9929 160.821-14.8809 160.838-14.7352 160.849-14.5557 160.871-14.3877 160.882-14.1745 160.882-13.916 160.882-13.613 160.871-13.3661 160.849-13.1751 160.838-12.9841 160.809-12.8333 160.763-12.7228 160.73-12.6093 160.68-12.5304 160.612-12.4858 160.545-12.4514 160.466-12.4342 160.375-12.4342 160.275-12.4342 160.118-12.4909 159.906-12.6043 159.693-12.7264 159.424-12.8556 159.098-12.992 158.784-13.1255 158.414-13.2483 157.989-13.3603 157.573-13.4838 157.095-13.5455 156.557-13.5455 156.176-13.5455 155.846-13.5061 155.566-13.4271 155.284-13.3495 155.055-13.2375 154.877-13.0911 154.696-12.9461 154.561-12.7723 154.472-12.5698 154.381-12.3789 154.336-12.1707 154.336-11.9452 154.336-11.5992 154.443-11.3084 154.657-11.0729 154.869-10.8374 155.149-10.6292 155.497-10.4483 155.846-10.2703 156.239-10.1023 156.675-9.94431 157.125-9.78636 157.573-9.61262 158.021-9.42308 158.481-9.24359 158.929-9.03036 159.367-8.78339 159.817-8.53641 160.215-8.23344 160.563-7.87446 160.91-7.51549 161.19-7.084 161.403-6.58 161.617-6.08605 161.724-5.49733 161.724-4.81385Z" transform="matrix(1.00244 0 0 1 416.612 173.769)"/><path d="M1379.54 757.077 1642.31 757.077 1642.31 871.231 1379.54 871.231Z" fill="#F8CBAD" transform="matrix(1.00244 0 0 1 -741.818 -640.385)"/><path d="M1412.38 757.077 1412.38 871.231M1609.46 757.077 1609.46 871.231" stroke="#2F528F" stroke-width="2.87108" stroke-miterlimit="8" fill="none" transform="matrix(1.00244 0 0 1 -741.818 -640.385)"/><path d="M1379.54 757.077 1642.31 757.077 1642.31 871.231 1379.54 871.231Z" stroke="#2F528F" stroke-width="2.87179" stroke-miterlimit="8" fill="none" transform="matrix(1.00244 0 0 1 -741.818 -640.385)"/><path d="M15.2794-6.52831C15.2794-5.3839 15.0662-4.38021 14.6397-3.51723 14.2132-2.65282 13.6353-1.92913 12.9058-1.34615 12.1764-0.774667 11.3242-0.342462 10.3492-0.0495385 9.37282 0.241949 8.32964 0.387692 7.21969 0.387692 6.46728 0.387692 5.76585 0.325949 5.11539 0.202462 4.47641 0.0789744 3.90923-0.0667692 3.41385-0.234769 2.92133-0.414256 2.50708-0.599487 2.17108-0.790462 1.84369-0.981436 1.60821-1.15015 1.46462-1.29662 1.31815-1.44164 1.21046-1.64841 1.14154-1.91692 1.08554-2.19692 1.05754-2.59467 1.05754-3.11015 1.05754-3.45764 1.06903-3.74985 1.092-3.98677 1.11354-4.22226 1.14728-4.41251 1.19323-4.55754 1.24923-4.704 1.316-4.80451 1.39354-4.85908 1.484-4.928 1.58523-4.96246 1.69723-4.96246 1.85518-4.96246 2.07415-4.86697 2.35415-4.676 2.64564-4.49651 3.01538-4.29477 3.46338-4.07077 3.91282-3.84533 4.44626-3.63713 5.06369-3.44615 5.69118-3.2681 6.41415-3.17908 7.23262-3.17908 7.77108-3.17908 8.25354-3.2401 8.68-3.36215 9.10646-3.49713 9.46544-3.68236 9.75692-3.91785 10.0599-4.15333 10.2896-4.44554 10.4462-4.79446 10.6041-5.14195 10.6831-5.52892 10.6831-5.95539 10.6831-6.4479 10.5481-6.86862 10.2782-7.21754 10.0096-7.57651 9.65641-7.89026 9.21846-8.15877 8.792-8.43877 8.30379-8.69723 7.75385-8.93415 7.20533-9.17969 6.63959-9.43744 6.05662-9.70739 5.47221-9.9759 4.90503-10.2789 4.35508-10.6163 3.80656-10.9638 3.31333-11.373 2.87538-11.844 2.44892-12.3265 2.10144-12.8936 1.83292-13.5455 1.56297-14.1946 1.428-14.9735 1.428-15.8825 1.428-16.9264 1.61897-17.8403 2.00092-18.6243 2.39292-19.4212 2.91415-20.0782 3.56462-20.5951 4.22656-21.1221 5.00051-21.5141 5.88646-21.7711 6.7839-22.0295 7.73159-22.1588 8.72954-22.1588 9.24646-22.1588 9.76338-22.1193 10.2803-22.0403 10.7958-21.9628 11.2775-21.8565 11.7255-21.7215 12.175-21.5866 12.5734-21.4351 12.9209-21.2671 13.2684-21.0991 13.4982-20.9591 13.6102-20.8471 13.7222-20.7351 13.7954-20.6396 13.8298-20.5606 13.8744-20.4816 13.9081-20.3747 13.9311-20.2397 13.9641-20.1176 13.9864-19.9554 13.9978-19.7529 14.0093-19.562 14.0151-19.3207 14.0151-19.0292 14.0151-18.7033 14.0036-18.4283 13.9806-18.2043 13.9691-17.9803 13.9411-17.7951 13.8966-17.6486 13.8636-17.5036 13.8076-17.3973 13.7286-17.3298 13.6626-17.2638 13.5678-17.2308 13.4443-17.2308 13.3208-17.2308 13.1248-17.3097 12.8563-17.4677 12.5864-17.6242 12.2554-17.7922 11.8634-17.9717 11.4699-18.1627 11.0155-18.3307 10.5-18.4757 9.98308-18.6336 9.4159-18.7126 8.79846-18.7126 8.31744-18.7126 7.89744-18.6509 7.53846-18.5274 7.17949-18.4139 6.87651-18.251 6.62954-18.0385 6.39405-17.8374 6.21456-17.5905 6.09108-17.2975 5.97908-17.0061 5.92308-16.6973 5.92308-16.3714 5.92308-15.8904 6.05231-15.4704 6.31077-15.1114 6.57928-14.7625 6.93251-14.448 7.37046-14.168 7.81846-13.8995 8.32318-13.641 8.88462-13.3926 9.44462-13.1586 10.0168-12.9073 10.6012-12.6388 11.1842-12.3688 11.7564-12.0601 12.3178-11.7126 12.8778-11.3752 13.3768-10.9659 13.8148-10.4849 14.2527-10.0125 14.6059-9.45108 14.8745-8.80062 15.1444-8.16164 15.2794-7.40421 15.2794-6.52831ZM29.7662-2.96154C29.7662-2.67005 29.7554-2.42308 29.7338-2.22062 29.7224-2.02964 29.6994-1.86738 29.6649-1.73385 29.6434-1.59887 29.6104-1.48615 29.5658-1.39569 29.5314-1.31815 29.4467-1.2119 29.3117-1.07692 29.1782-0.953436 28.9484-0.796205 28.6225-0.605231 28.298-0.425744 27.9275-0.263487 27.5111-0.118462 27.0961 0.028 26.6424 0.145744 26.1498 0.234769 25.6674 0.325231 25.1677 0.370462 24.6508 0.370462 23.4963 0.370462 22.4696 0.190974 21.5708-0.168 20.6848-0.526974 19.9396-1.05467 19.3351-1.75108 18.7291-2.45754 18.2689-3.31549 17.9545-4.32492 17.6515-5.33436 17.5-6.49026 17.5-7.79262 17.5-9.29456 17.6852-10.5897 18.0557-11.6782 18.4362-12.7781 18.9632-13.687 19.6366-14.4049 20.3101-15.1229 21.107-15.6556 22.0274-16.0031 22.9464-16.3506 23.9558-16.5243 25.0557-16.5243 25.5037-16.5243 25.9416-16.4848 26.3695-16.4058 26.8061-16.3283 27.2095-16.2221 27.58-16.0871 27.9605-15.9521 28.2965-15.8006 28.588-15.6326 28.891-15.4646 29.1042-15.3189 29.2277-15.1954 29.3512-15.0719 29.4359-14.9649 29.4818-14.8745 29.5378-14.7969 29.5766-14.6907 29.5982-14.5557 29.6326-14.4207 29.6549-14.252 29.6649-14.0495 29.6879-13.86 29.6994-13.6245 29.6994-13.3431 29.6994-12.6926 29.6434-12.2331 29.5314-11.9646 29.4194-11.7062 29.2736-11.5769 29.0942-11.5769 28.9032-11.5769 28.7014-11.6559 28.4889-11.8138 28.275-11.9704 28.0223-12.1441 27.7308-12.3351 27.4393-12.5246 27.0918-12.6984 26.6883-12.8563 26.2834-13.0143 25.8009-13.0932 25.2409-13.0932 24.141-13.0932 23.2996-12.6661 22.7166-11.8117 22.1336-10.9703 21.8422-9.73108 21.8422-8.09415 21.8422-7.28574 21.9147-6.57354 22.0597-5.95754 22.2062-5.3401 22.4194-4.82318 22.6994-4.40677 22.9909-3.99323 23.3498-3.67949 23.7763-3.46554 24.2143-3.26451 24.719-3.164 25.2905-3.164 25.8734-3.164 26.3724-3.248 26.7874-3.416 27.2138-3.59549 27.5843-3.79149 27.8988-4.004 28.2132-4.21795 28.4767-4.40892 28.6892-4.57692 28.9032-4.75641 29.0827-4.84615 29.2277-4.84615 29.3282-4.84615 29.4129-4.81744 29.4818-4.76 29.5479-4.70544 29.5982-4.59918 29.6326-4.44123 29.6771-4.29621 29.7109-4.10595 29.7338-3.87046 29.7554-3.63497 29.7662-3.332 29.7662-2.96154ZM42.4717-14.1852C42.4717-13.7817 42.4602-13.4508 42.4372-13.1923 42.4143-12.9338 42.3805-12.7321 42.336-12.5871 42.2915-12.4406 42.2297-12.3401 42.1508-12.2855 42.0833-12.2281 41.9935-12.1994 41.8815-12.1994 41.7925-12.1994 41.692-12.2159 41.58-12.2489 41.468-12.2949 41.3388-12.3401 41.1923-12.3846 41.0573-12.4291 40.9066-12.4686 40.74-12.5031 40.5706-12.5462 40.3846-12.5677 40.1822-12.5677 39.9467-12.5677 39.7112-12.5174 39.4757-12.4169 39.2402-12.3279 38.9932-12.1822 38.7348-11.9797 38.4878-11.7787 38.2243-11.5094 37.9443-11.172 37.6758-10.836 37.3843-10.421 37.0698-9.92708L37.0698-0.572923C37.0698-0.459487 37.0361-0.358256 36.9686-0.269231 36.9011-0.190256 36.7834-0.122769 36.6154-0.0667692 36.4574-0.0107692 36.2442 0.028 35.9757 0.0495385 35.7072 0.084 35.3654 0.101231 34.9505 0.101231 34.5341 0.101231 34.1916 0.084 33.9231 0.0495385 33.6531 0.028 33.4342-0.0107692 33.2662-0.0667692 33.1082-0.124205 32.9962-0.191692 32.9302-0.269231 32.8627-0.359692 32.8289-0.460205 32.8289-0.570769L32.8289-15.5831C32.8289-15.6936 32.8576-15.7884 32.9151-15.8674 32.9696-15.9578 33.0702-16.0311 33.2166-16.0871 33.3616-16.1431 33.5469-16.1818 33.7723-16.2034 34.0078-16.2378 34.2993-16.2551 34.6468-16.2551 35.0057-16.2551 35.303-16.2378 35.5385-16.2034 35.7739-16.1818 35.9534-16.1431 36.0769-16.0871 36.2119-16.0296 36.3074-15.9564 36.3634-15.8674 36.4194-15.7898 36.4474-15.6944 36.4474-15.5809L36.4474-13.7135C36.8394-14.2735 37.2091-14.733 37.5566-15.092 37.9055-15.4639 38.2365-15.7561 38.5495-15.9686 38.8654-16.1826 39.1799-16.3283 39.4929-16.4058 39.8074-16.4963 40.1211-16.5415 40.4342-16.5415 40.5806-16.5415 40.7386-16.5301 40.908-16.5071 41.0746-16.4956 41.2476-16.4676 41.4271-16.4231 41.6066-16.3901 41.7645-16.3448 41.9009-16.2874 42.0345-16.2443 42.1292-16.1941 42.1852-16.1366 42.2527-16.0806 42.2972-16.0189 42.3188-15.9514 42.3532-15.8839 42.382-15.7884 42.4049-15.6649 42.4265-15.5529 42.443-15.3792 42.4545-15.1437 42.466-14.9082 42.4717-14.5887 42.4717-14.1852ZM49.3188-0.572923C49.3188-0.459487 49.2857-0.358256 49.2197-0.269231 49.1522-0.190256 49.0345-0.122769 48.8665-0.0667692 48.7085-0.0107692 48.4953 0.028 48.2268 0.0495385 47.9568 0.084 47.6144 0.101231 47.1994 0.101231 46.7844 0.101231 46.4427 0.084 46.1742 0.0495385 45.9042 0.028 45.6852-0.0107692 45.5172-0.0667692 45.3593-0.124205 45.2473-0.191692 45.1812-0.269231 45.1137-0.359692 45.08-0.460205 45.08-0.570769L45.08-15.5508C45.08-15.6628 45.1137-15.7583 45.1812-15.8372 45.2473-15.9263 45.3593-15.9988 45.5172-16.0548 45.6852-16.1223 45.9042-16.1725 46.1742-16.2055 46.4427-16.24 46.7844-16.2572 47.1994-16.2572 47.6158-16.2572 47.9583-16.24 48.2268-16.2055 48.4953-16.1725 48.7085-16.1223 48.8665-16.0548 49.0345-15.9988 49.1522-15.9263 49.2197-15.8372 49.2857-15.7583 49.3188-15.6628 49.3188-15.5508ZM49.6397-20.664C49.6397-19.8111 49.466-19.2224 49.1185-18.8978 48.771-18.5719 48.1255-18.4089 47.1822-18.4089 46.2287-18.4089 45.584-18.5662 45.248-18.8806 44.9221-19.1936 44.7591-19.7601 44.7591-20.58 44.7591-21.4315 44.9278-22.0202 45.2652-22.3462 45.6127-22.6822 46.2632-22.8502 47.2166-22.8502 48.1586-22.8502 48.7975-22.6879 49.1335-22.3634 49.471-22.0489 49.6397-21.4817 49.6397-20.6618ZM68.6538-8.29662C68.6538-6.96123 68.5081-5.75508 68.2166-4.67815 67.9366-3.61272 67.5216-2.70379 66.9717-1.95138 66.4217-1.20041 65.7375-0.62318 64.9191-0.219692 64.1006 0.185231 63.1637 0.387692 62.1083 0.387692 61.6704 0.387692 61.2662 0.342462 60.8957 0.252 60.5367 0.173026 60.1835 0.0495385 59.836-0.118462 59.5-0.297949 59.164-0.516205 58.828-0.773231 58.4906-1.03169 58.1424-1.33467 57.7834-1.68215L57.7834 5.38462C57.7834 5.49662 57.7496 5.59713 57.6822 5.68615 57.6147 5.77662 57.4969 5.84985 57.3289 5.90585 57.171 5.97333 56.9577 6.02359 56.6892 6.05662 56.4207 6.09108 56.079 6.10831 55.664 6.10831 55.2476 6.10831 54.9051 6.09108 54.6366 6.05662 54.3681 6.02359 54.1491 5.97333 53.9797 5.90585 53.8232 5.84985 53.7112 5.77733 53.6437 5.68831 53.5762 5.59785 53.5425 5.49662 53.5425 5.38462L53.5425-15.5809C53.5425-15.6944 53.5712-15.7898 53.6286-15.8674 53.6832-15.9578 53.778-16.0311 53.9129-16.0871 54.0594-16.1431 54.2446-16.1818 54.4686-16.2034 54.7041-16.2378 54.9956-16.2551 55.3431-16.2551 55.6805-16.2551 55.9605-16.2378 56.1831-16.2034 56.42-16.1818 56.606-16.1431 56.7409-16.0871 56.886-16.0296 56.9865-15.9564 57.0425-15.8674 57.0999-15.7898 57.1286-15.6944 57.1286-15.5809L57.1286-13.8148C57.5651-14.2642 57.9909-14.6569 58.4058-14.9929 58.8323-15.3404 59.2645-15.6262 59.7025-15.8502 60.139-16.0856 60.5877-16.2601 61.0486-16.3735 61.5196-16.4855 62.0186-16.5415 62.5455-16.5415 63.6454-16.5415 64.5824-16.3226 65.3563-15.8846 66.1303-15.4582 66.7585-14.8694 67.2409-14.1185 67.7334-13.3661 68.0924-12.4902 68.3178-11.4908 68.5418-10.4943 68.6538-9.42954 68.6538-8.29662ZM64.2449-7.99292C64.2449-8.6319 64.1947-9.24359 64.0942-9.828 64.0037-10.4225 63.8407-10.9494 63.6052-11.4089 63.3812-11.8684 63.0783-12.2331 62.6963-12.5031 62.3273-12.7831 61.8621-12.9231 61.3006-12.9231 61.0206-12.9231 60.7406-12.8778 60.4606-12.7874 60.1907-12.7098 59.91-12.5756 59.6185-12.3846 59.337-12.1936 59.0448-11.9467 58.7419-11.6437 58.4403-11.3422 58.1208-10.9667 57.7834-10.5172L57.7834-5.56985C58.3778-4.81887 58.945-4.23518 59.4849-3.81877 60.0219-3.41672 60.582-3.21569 61.1649-3.21569 61.7149-3.21569 62.1808-3.35497 62.5628-3.63354 62.9548-3.91497 63.2743-4.27969 63.5212-4.72769 63.7682-5.18718 63.9477-5.7041 64.0597-6.27846 64.1832-6.84851 64.2449-7.42 64.2449-7.99292ZM80.7865-2.05262C80.7865-1.55867 80.7527-1.17744 80.6852-0.908923 80.6278-0.650462 80.5488-0.465231 80.4483-0.353231 80.3478-0.252718 80.197-0.157231 79.996-0.0667692 79.805 0.0107692 79.5753 0.0775385 79.3068 0.133538 79.0483 0.201026 78.7611 0.251282 78.4452 0.284308 78.1437 0.318769 77.8357 0.336 77.5212 0.336 76.6798 0.336 75.9511 0.229744 75.3351 0.0172308 74.7176-0.196718 74.2072-0.521949 73.8037-0.958462 73.3988-1.4079 73.1015-1.96933 72.912-2.64277 72.721-3.31477 72.6255-4.11097 72.6255-5.03138L72.6255-12.7206 70.8249-12.7206C70.611-12.7206 70.448-12.8498 70.336-13.1083 70.224-13.3768 70.168-13.8198 70.168-14.4372 70.168-14.7632 70.1795-15.0382 70.2025-15.2622 70.2355-15.4862 70.28-15.6599 70.336-15.7834 70.3934-15.9184 70.4609-16.0138 70.5385-16.0698 70.6289-16.1258 70.7294-16.1538 70.84-16.1538L72.6255-16.1538 72.6255-19.5031C72.6255-19.6151 72.6535-19.7156 72.7095-19.8046 72.777-19.8951 72.889-19.9683 73.0455-20.0243 73.2135-20.0918 73.4325-20.1363 73.7025-20.1578 73.9825-20.1923 74.3242-20.2095 74.7277-20.2095 75.1441-20.2095 75.4866-20.1923 75.7551-20.1578 76.0351-20.1363 76.2541-20.0918 76.412-20.0243 76.5685-19.9669 76.6805-19.8936 76.748-19.8046 76.8155-19.7156 76.8492-19.6151 76.8492-19.5031L76.8492-16.1538 80.1123-16.1538C80.2243-16.1538 80.3198-16.1251 80.3988-16.0677 80.4892-16.0131 80.5625-15.9184 80.6185-15.7834 80.6745-15.6599 80.7132-15.4862 80.7348-15.2622 80.7692-15.0382 80.7865-14.7632 80.7865-14.4372 80.7865-13.8198 80.7305-13.3768 80.6185-13.1083 80.5065-12.8498 80.3435-12.7206 80.1295-12.7206L76.8492-12.7206 76.8492-5.67108C76.8492-4.85262 76.9785-4.23518 77.2369-3.81877 77.4954-3.41672 77.9549-3.21569 78.6154-3.21569 78.8394-3.21569 79.0411-3.23221 79.2206-3.26523 79.4001-3.30831 79.5573-3.35282 79.6923-3.39877L80.0455-3.53446C80.1461-3.57754 80.2358-3.59908 80.3148-3.59908 80.3823-3.59908 80.444-3.57754 80.5-3.53446 80.5675-3.5 80.6178-3.42103 80.6508-3.29754 80.6852-3.18554 80.714-3.02831 80.7369-2.82585 80.77-2.62482 80.7865-2.36708 80.7865-2.05262Z" transform="matrix(1.00244 0 0 1 731.051 184.538)"/></g></g></g><path d="M141 363.835C141 329.132 169.132 301 203.834 301L505.165 301C539.868 301 568 329.132 568 363.835L568 615.166C568 649.868 539.868 678 505.165 678L203.834 678C169.132 678 141 649.868 141 615.166Z" fill="#ADB9CA" fill-rule="evenodd"/><text font-family="Calibri,Calibri_MSFontService,sans-serif" font-weight="700" font-size="32" transform="translate(169.227 355)">MLProject<tspan font-size="32" x="142.607" y="0">File:</tspan><tspan font-family="Arial,Arial_MSFontService,sans-serif" font-weight="400" font-size="32" x="0" y="38"></tspan><tspan font-size="32" x="30" y="38">Entry</tspan><tspan font-size="32" x="107.507" y="38">Point</tspan><tspan font-size="32" x="184.193" y="38">Parameters</tspan><tspan font-family="Arial,Arial_MSFontService,sans-serif" font-weight="400" font-size="32" x="0" y="77"></tspan><tspan font-size="32" x="30" y="77">Entry Point Command </tspan><tspan font-size="32" x="30" y="115">(Runs Python Script)</tspan><tspan font-size="32" x="0" y="192">Python Script:</tspan><tspan font-family="Arial,Arial_MSFontService,sans-serif" font-weight="400" font-size="32" x="0" y="230"></tspan><tspan font-size="32" x="30" y="230">Command Line Click </tspan><tspan font-size="32" x="30" y="269">Parameters</tspan></text><path d="M712 363.835C712 329.132 740.132 301 774.834 301L1076.17 301C1110.87 301 1139 329.132 1139 363.835L1139 615.166C1139 649.868 1110.87 678 1076.17 678L774.834 678C740.132 678 712 649.868 712 615.166Z" fill="#ADB9CA" fill-rule="evenodd"/><text font-family="Calibri,Calibri_MSFontService,sans-serif" font-weight="700" font-size="32" transform="translate(739.586 355)">Main:<tspan font-family="Arial,Arial_MSFontService,sans-serif" font-weight="400" font-size="32" x="0" y="38"></tspan><tspan font-size="32" x="36" y="38">Forward Job Parameters </tspan><tspan font-size="32" x="36" y="77">to Prefect Flows.</tspan><tspan font-size="32" x="0" y="154">Prefect Flows:</tspan><tspan font-family="Arial,Arial_MSFontService,sans-serif" font-weight="400" font-size="32" x="0" y="192"></tspan><tspan font-size="32" x="36" y="192">Build </tspan><tspan font-size="32" x="111.167" y="192">T</tspan>ask Pipelines.<tspan fill="#0070C0" font-size="32" x="0" y="269">Task Plugins:*</tspan><tspan fill="#0070C0" font-family="Arial,Arial_MSFontService,sans-serif" font-weight="400" font-size="32" x="0" y="307"></tspan><tspan fill="#0070C0" font-size="32" x="36" y="307">Localized and Built</tspan><tspan fill="#0070C0" font-size="32" x="283.22" y="307">-</tspan><tspan fill="#0070C0" font-size="32" x="293.053" y="307">ins.</tspan></text><path d="M1.59758-4.20687 123.153 41.9543 119.958 50.368-1.59758 4.20687ZM-3.19516 8.41374C-7.84194 6.6491-10.1784 1.45162-8.41374-3.19516-6.6491-7.84194-1.45162-10.1784 3.19516-8.41374 7.84194-6.6491 10.1784-1.45162 8.41374 3.19516 6.6491 7.84194 1.45162 10.1784-3.19516 8.41374ZM122.141 31.943 142.59 54.1491 112.556 57.1842Z" fill="#4472C4" transform="matrix(-1 0 0 1 498.09 247.5)"/><path d="M784.091 243.291 906.273 289.483 903.091 297.902 780.909 251.709ZM779.317 255.919C774.668 254.161 772.324 248.967 774.082 244.317 775.839 239.668 781.033 237.324 785.683 239.082 790.332 240.839 792.676 246.033 790.919 250.683 789.161 255.332 783.967 257.676 779.317 255.919ZM905.247 279.473 925.728 301.649 895.699 304.729Z" fill="#F8CBAD"/></g></svg>
