<svg xmlns="http://www.w3.org/2000/svg" width="192" height="24" viewBox="0 0 50.8 6.35"><defs><clipPath id="d"><path d="m547.176 425.187 16.928-16.928 16.927 16.928-16.927 16.928z" fill-rule="evenodd" clip-rule="evenodd"/></clipPath><clipPath id="e"><path d="m547.176 425.187 16.928-16.928 16.927 16.928-16.927 16.928z" fill-rule="evenodd" clip-rule="evenodd"/></clipPath><clipPath id="f"><path d="m547.176 425.187 16.928-16.928 16.927 16.928-16.927 16.928z" fill-rule="evenodd" clip-rule="evenodd"/></clipPath><clipPath id="a"><path d="M553 413h24v24h-24z"/></clipPath><clipPath id="b"><path d="M553 413h24v24h-24z"/></clipPath><clipPath id="c"><path d="M553 413h24v24h-24z"/></clipPath><clipPath id="g"><path d="M660 415h75v20h-75z"/></clipPath><clipPath id="h"><path d="M660 415h75v20h-75z"/></clipPath><clipPath id="i"><path d="M660 415h75v20h-75z"/></clipPath><linearGradient x1="10.309" y1="11.89" x2="6.143" y2="7.539" gradientUnits="userSpaceOnUse" spreadMethod="pad" id="j"><stop offset="0" stop-color="#B4C0C9"/><stop offset="1" stop-color="#94A5B2"/></linearGradient><linearGradient x1="226.662" y1="61.829" x2="232.96" y2="73.198" gradientUnits="userSpaceOnUse" spreadMethod="pad" id="k"><stop offset="0" stop-color="#647989"/><stop offset="1" stop-color="#2F383E"/></linearGradient><linearGradient x1="230.194" y1="54.444" x2="236.913" y2="60.842" gradientUnits="userSpaceOnUse" spreadMethod="pad" id="l"><stop offset="0" stop-color="#2EDAFF"/><stop offset="1" stop-color="#004BFF"/></linearGradient></defs><path d="M8.618 60.627a1.058 1.058 0 0 1 1.058-1.058H58.36a1.058 1.058 0 0 1 1.058 1.058v4.234a1.058 1.058 0 0 1-1.058 1.058H9.676a1.058 1.058 0 0 1-1.058-1.058z" fill="#e7e6e6" fill-rule="evenodd" style="stroke-width:.264583" transform="translate(-8.618 -59.569)"/><path d="M21.601 61.337q0 .047-.005.081-.004.034-.017.056-.01.02-.027.03-.015.01-.034.01h-.894v2.754q0 .02-.01.034-.01.015-.034.025-.024.007-.066.012-.04.007-.1.007-.06 0-.101-.007-.042-.005-.066-.012-.025-.01-.035-.025-.01-.015-.01-.034v-2.755h-.893q-.02 0-.037-.01-.015-.01-.025-.028-.01-.023-.017-.057-.005-.034-.005-.081t.005-.081q.008-.037.017-.059.01-.022.025-.032.017-.01.037-.01h2.21q.018 0 .034.01.016.01.026.032.013.022.017.059.005.034.005.081zm1.684 2.936q0 .03-.02.044-.02.015-.053.022-.035.007-.1.007t-.104-.007q-.037-.007-.054-.022t-.017-.044v-.221q-.145.154-.324.24-.177.086-.376.086-.174 0-.316-.046-.14-.045-.241-.13-.098-.086-.155-.212-.054-.125-.054-.284 0-.187.077-.324.075-.138.218-.229.142-.09.349-.135.206-.046.463-.046h.305V62.8q0-.128-.027-.226t-.089-.162q-.058-.066-.154-.098-.096-.035-.236-.035-.15 0-.27.037-.118.035-.209.079-.088.042-.15.078-.058.035-.088.035-.02 0-.034-.01-.015-.01-.027-.03-.01-.02-.015-.049-.005-.031-.005-.068 0-.062.008-.096.01-.037.041-.069.035-.032.116-.074.08-.044.186-.078.106-.037.231-.059.125-.025.253-.025.238 0 .405.054.167.054.27.16.103.103.15.258.046.154.046.36zm-.402-1.01h-.346q-.167 0-.29.03-.123.027-.204.084-.08.054-.12.132-.037.076-.037.177 0 .172.108.275.11.1.307.1.16 0 .295-.08.137-.082.287-.248zm2.533.406q0 .17-.064.302-.061.132-.177.223-.115.091-.275.138-.16.046-.35.046-.119 0-.226-.02-.106-.017-.192-.044-.083-.029-.142-.059-.06-.031-.086-.056-.027-.025-.04-.069-.012-.044-.012-.12 0-.047.005-.078.005-.032.012-.052.008-.02.02-.027.015-.01.032-.01.027 0 .079.035.054.031.13.07.078.04.184.074.105.032.243.032.103 0 .186-.022.084-.022.145-.064.061-.044.094-.11.034-.066.034-.157 0-.094-.05-.157-.046-.064-.124-.113-.079-.05-.177-.086-.098-.04-.204-.081-.103-.042-.204-.093-.098-.054-.176-.13-.079-.077-.128-.182-.047-.106-.047-.253 0-.13.05-.248.05-.12.152-.209.1-.09.25-.144.152-.054.353-.054.089 0 .177.014.088.015.16.037.071.022.12.05.051.024.076.043.027.02.034.035.01.015.013.034.005.017.007.044.005.027.005.066 0 .042-.005.074-.002.03-.012.05-.008.02-.02.029-.012.007-.027.007-.022 0-.064-.027-.041-.027-.108-.056-.066-.032-.157-.06-.088-.026-.204-.026-.103 0-.181.024-.079.022-.13.066-.05.042-.076.101-.025.06-.025.128 0 .096.05.162.048.064.127.113.078.049.179.088l.204.081q.105.042.206.093.103.052.182.126.078.073.125.176.049.103.049.246zm2.393.599q0 .02-.01.034-.01.015-.034.025-.022.01-.064.014-.042.005-.106.005-.066 0-.11-.005-.042-.002-.071-.01-.03-.01-.05-.024-.016-.017-.03-.04l-.934-1.222v1.225q0 .02-.01.035-.01.012-.031.022-.023.01-.062.014-.04.005-.1.005-.06 0-.099-.005-.04-.004-.063-.014t-.032-.022q-.008-.015-.008-.035v-3.28q0-.019.008-.033.01-.015.031-.025.025-.01.064-.015.04-.005.098-.005.062 0 .101.005.04.005.061.015.023.01.032.025.01.014.01.034v1.998l.835-.918q.02-.025.042-.04.021-.017.051-.026.032-.013.074-.015.041-.005.1-.005.062 0 .103.005.042.002.067.012.027.008.037.022.012.013.012.034 0 .03-.017.06-.015.029-.052.068l-.8.8.898 1.166q.032.042.044.07.015.024.015.046z" style="font-weight:400;font-size:19px;font-family:Calibri,Calibri_MSFontService,sans-serif;stroke-width:.264583" aria-label="Task" transform="translate(-8.618 -59.569)"/><g clip-path="url(#a)" transform="translate(-144.462 -109.008) scale(.26458)"><g clip-path="url(#b)"><g clip-path="url(#c)"><path d="M564.75 418.75v4.75h-1.5v.5h3.5v-.5h-1.5v-5.25h-3.767a2 2 0 1 0 0 .5zM559.5 420a1.5 1.5 0 1 1 .001-3.001A1.5 1.5 0 0 1 559.5 420zm11 9.5a2 2 0 0 0-1.982 1.75h-3.268v-4.75h1.5v-.5h-3.5v.5h1.5v5.25h3.767a2 2 0 1 0 1.983-2.25zm0 3.5a1.5 1.5 0 1 1 .001-3.001A1.5 1.5 0 0 1 570.5 433z"/></g></g></g><g clip-path="url(#d)" transform="translate(-144.462 -109.008) scale(.26458)"><g clip-path="url(#e)"><g clip-path="url(#f)" fill="#335eac" fill-opacity=".75"><path d="M564.121 426.184h-1.995v-1.995h1.995a.748.748 0 0 0 0-1.496h-1.995v-1.247h-2.493a3.74 3.74 0 0 0-3.664 2.985l-.833-.014a6.771 6.771 0 0 0-4.873 1.972l-.59.59 1.058 1.058.59-.59a5.267 5.267 0 0 1 3.791-1.535l.855.015a3.74 3.74 0 0 0 3.666 2.999l2.493.001v-1.247h1.995a.748.748 0 0 0 0-1.496zm12.803-3.238a5.21 5.21 0 0 1-3.616 1.533l-.948.016a3.742 3.742 0 0 0-3.665-2.985h-2.493v7.481h2.494a3.741 3.741 0 0 0 3.666-2.999l.971-.016a6.702 6.702 0 0 0 4.649-1.972l.581-.581-1.058-1.058z"/></g></g></g><g clip-path="url(#g)" transform="translate(-144.462 -109.008) scale(.26458)"><g clip-path="url(#h)"><g clip-path="url(#i)" fill-rule="evenodd"><path d="M677.885 429.276v-8.55h4.763c2.181 0 2.985.763 2.985 2.784 0 2.022-.804 2.77-2.985 2.77h-3.169v2.996zm1.594-4.466h3.021c1.145 0 1.535-.32 1.535-1.3 0-.981-.39-1.316-1.535-1.316h-3.021zm7.29 4.466v-8.55h4.669c2.093 0 2.862.753 2.862 2.717 0 1.661-.547 2.44-1.974 2.64l2.379 3.193h-1.949l-2.305-3.14h-2.127v3.14zm1.559-4.595h2.981c1.071 0 1.437-.32 1.437-1.228 0-.933-.38-1.263-1.437-1.263h-2.981zm7.137 4.595v-8.55h7.088v1.47h-5.518v2.015h4.689v1.455h-4.689v2.145h5.617v1.465zm8.505 0v-8.55h7.181v1.47h-5.578v2.015h4.733v1.455h-4.733v3.61zm8.128 0v-8.55h7.088v1.47h-5.518v2.015h4.694v1.455h-4.694v2.145h5.617v1.465zm15.691-8.55h7.181v1.493h-2.986v7.054h-1.589v-7.057h-5.913c-2.853 0-2.858-.026-2.858 2.785 0 2.81 0 2.81 2.858 2.81h2.576v1.465h-2.576c-4.447 0-4.447-.278-4.447-4.275 0-3.997-.065-4.275 4.447-4.275z" fill="#465968"/><path d="M11.903 8.92 5.948 5.936V12z" fill="url(#j)" transform="matrix(1 0 0 1.04482 660.03 415)" style="fill:url(#j)"/><path d="m666.736 427.128-.758-4.71v5.12zm4.434-3.211-5.192-2.715v.691z" fill="#0d3958" fill-opacity=".2"/><path d="M226.556 72.378c.012-.008 5.47-2.653 5.474-2.656.075-.046.118-.057.12-.188l-.002-10.3c-2.313 1.157-5.567 2.78-5.849 2.93-.089.05-.101.092-.101.156v9.792c-.003.221.012.44.358.266z" fill="url(#k)" transform="matrix(1 0 0 1.04482 433.832 359.313)" style="fill:url(#k)"/><path d="M238.1 56.383v5.833s-11.109-5.557-11.494-5.756c-.256-.134-.256-.261 0-.405.236-.132 4.744-2.38 5.435-2.726.09-.04.117-.04.196-.007l5.752 2.882c.082.04.107.08.111.179z" fill="url(#l)" transform="matrix(1 0 0 1.04482 433.832 359.313)" style="fill:url(#l)"/></g></g></g></svg>